<svg width="32" height="32" viewBox="0 0 32 32" fill="none" xmlns="http://www.w3.org/2000/svg">
<path d="M16 0C24.8365 0 32 7.16344 32 16C32 24.8365 24.8365 32 16 32C7.16344 32 0 24.8365 0 16C0 7.16344 7.16344 0 16 0Z" fill="white" fill-opacity="0.2"/>
<path d="M9.76786 9.91027L9.83441 9.8349C10.1228 9.54651 10.5766 9.52433 10.8904 9.76835L10.9658 9.8349L16.0001 14.8686L21.0344 9.8349C21.3468 9.52248 21.8534 9.52248 22.1658 9.8349C22.4782 10.1473 22.4782 10.6539 22.1658 10.9663L17.1321 16.0006L22.1658 21.0349C22.4542 21.3233 22.4763 21.7771 22.2323 22.0909L22.1658 22.1663C21.8774 22.4547 21.4236 22.4768 21.1098 22.2328L21.0344 22.1663L16.0001 17.1326L10.9658 22.1663C10.6534 22.4787 10.1468 22.4787 9.83441 22.1663C9.52199 21.8539 9.52199 21.3473 9.83441 21.0349L14.8681 16.0006L9.83441 10.9663C9.54603 10.6779 9.52384 10.2241 9.76786 9.91027Z" fill="white"/>
</svg>
