<svg width="40" height="40" viewBox="0 0 40 40" fill="none" xmlns="http://www.w3.org/2000/svg">
<path d="M29.1565 7.96356C30.2814 8.01313 30.2809 9.73382 29.1565 9.78308H28.1737V10.8368C28.1737 11.3385 27.7934 11.7467 27.3257 11.7467C26.8579 11.7467 26.4775 11.3385 26.4775 10.8368V9.78311H25.4948C25.0272 9.78311 24.6466 9.37492 24.6466 8.8734C24.6466 8.37189 25.0272 7.96353 25.4948 7.96353H26.4775V6.90985C26.4775 6.40831 26.8579 6.00015 27.3257 6.00015C27.7934 6.00015 28.1737 6.40831 28.1737 6.90985V7.96356H29.1565Z" fill="#F36262"/>
<path d="M22.0711 21.4617C26.0287 25.9538 23.3534 33.9015 16.9868 34C10.5996 33.8003 7.9053 26.011 11.8308 21.4601V11.4914C11.8308 8.4635 14.1277 6 16.9508 6C19.7739 6 22.0711 8.4635 22.0711 11.4914V21.4617ZM20.731 30.4958C22.7315 28.3665 22.6778 24.5904 20.6036 22.5282C20.4404 22.3515 20.3501 22.1217 20.3502 21.8834V11.4916C20.3494 9.46841 18.8142 7.82188 16.9282 7.82111C15.0397 7.82111 13.5037 9.46761 13.5029 11.4913V21.8851C13.5027 22.1234 13.4119 22.353 13.2483 22.5293C11.3126 24.5151 11.1479 27.9261 12.8455 30.1087C14.4136 32.2482 17.4311 32.8398 19.63 31.3826C19.63 31.3826 20.2613 31.0203 20.731 30.4958Z" fill="#F36262"/>
<path d="M17.9853 24.6396C19.7729 25.7531 19.0947 28.7309 16.9508 28.7639C14.6854 28.6891 14.1164 25.5675 16.1028 24.5245V11.4916C16.1028 10.9899 16.4832 10.5817 16.9508 10.5817C17.4184 10.5817 17.7991 10.9898 17.7991 11.4916V24.5244L17.9853 24.6396Z" fill="#F36262"/>
<path d="M17.9853 24.6396C19.7729 25.7531 19.0947 28.7309 16.9508 28.7639C14.6854 28.6891 14.1164 25.5675 16.1028 24.5245V11.4916C16.1028 10.9899 16.4832 10.5817 16.9508 10.5817C17.4184 10.5817 17.7991 10.9898 17.7991 11.4916V24.5244L17.9853 24.6396Z" fill="#F36262"/>
<path d="M17.9853 24.6396C19.7729 25.7531 19.0947 28.7309 16.9508 28.7639C14.6854 28.6891 14.1164 25.5675 16.1028 24.5245V11.4916C16.1028 10.9899 16.4832 10.5817 16.9508 10.5817C17.4184 10.5817 17.7991 10.9898 17.7991 11.4916V24.5244L17.9853 24.6396Z" fill="#F36262"/>
</svg>
