<svg width="19" height="20" viewBox="0 0 19 20" fill="none" xmlns="http://www.w3.org/2000/svg">
<path d="M10.8862 0.552344C10.0133 -0.184115 8.73667 -0.184115 7.86375 0.552344L0.832458 6.48416C0.304594 6.92948 0 7.58494 0 8.27556V17.9684C0 18.9752 0.816146 19.7913 1.82292 19.7913H4.94792C5.95469 19.7913 6.77083 18.9752 6.77083 17.9684V13.799C6.77083 13.0914 7.33521 12.5157 8.03844 12.4974H10.7116C11.4148 12.5157 11.9792 13.0914 11.9792 13.799V17.9684C11.9792 18.9752 12.7953 19.7913 13.8021 19.7913H16.9271C17.9339 19.7913 18.75 18.9752 18.75 17.9684V8.27556C18.75 7.58494 18.4454 6.92948 17.9175 6.48416L10.8862 0.552344Z" fill="#A39089"/>
</svg>
