<svg width="109" height="21" viewBox="0 0 109 21" fill="none" xmlns="http://www.w3.org/2000/svg">
<path d="M0.435274 11.632H14.9553V12.732H8.35528V19.64H7.03527V12.732H0.435274V11.632ZM3.40527 2.634H11.9853V3.734H8.35528C8.44327 4.966 8.86128 5.956 9.60927 6.748C10.3353 7.562 11.2813 8.178 12.4253 8.574L11.9853 9.542C11.6333 9.454 11.2373 9.278 10.7973 9.058C10.3573 8.86 9.91727 8.596 9.52128 8.244C9.10327 7.936 8.72927 7.54 8.42127 7.1C8.06927 6.682 7.82727 6.198 7.69528 5.648C7.54128 6.198 7.29927 6.682 6.99127 7.1C6.63927 7.54 6.26527 7.936 5.86927 8.244C5.45127 8.596 5.03327 8.86 4.59327 9.058C4.15327 9.278 3.75727 9.454 3.40527 9.542L2.96527 8.574C4.08727 8.178 5.03327 7.562 5.78127 6.748C6.52927 5.956 6.92527 4.966 7.01327 3.734H3.40527V2.634ZM18.4753 10.51C17.8153 10.51 17.3973 10.422 17.1773 10.202C16.9573 10.004 16.8473 9.63 16.8473 9.102V2.414H18.1673V5.582H23.1833V2.414H24.5033V10.51H18.4753ZM25.7573 4.372H28.8593V1.402H27.2753V0.301999H30.1793V14.69H28.8593V8.772H25.7573V7.672H28.8593V5.472H25.7573V4.372ZM21.9513 20.08C21.2913 20.08 20.8733 19.97 20.6533 19.772C20.4333 19.552 20.3233 19.2 20.3233 18.672V13.04H21.6433V18.518C21.6433 18.826 21.7973 18.98 22.1053 18.98H30.3993V20.08H21.9513ZM23.1833 9.41V6.682H18.1673V8.948C18.1673 9.256 18.3213 9.41 18.6293 9.41H23.1833ZM42.319 16.56C42.319 15.416 42.825 14.492 43.859 13.81C44.871 13.15 46.279 12.82 48.127 12.82C49.953 12.82 51.383 13.15 52.417 13.81C53.429 14.492 53.935 15.416 53.935 16.56C53.935 17.704 53.429 18.628 52.417 19.31C51.383 19.97 49.953 20.3 48.127 20.3C46.279 20.3 44.871 19.97 43.859 19.31C42.825 18.628 42.319 17.704 42.319 16.56ZM43.639 16.56C43.639 17.352 44.035 18.012 44.827 18.496C45.597 18.958 46.697 19.2 48.127 19.2C49.535 19.2 50.657 18.958 51.449 18.496C52.219 18.012 52.615 17.352 52.615 16.56C52.615 15.768 52.219 15.108 51.449 14.624C50.657 14.162 49.535 13.92 48.127 13.92C46.697 13.92 45.597 14.162 44.827 14.624C44.035 15.108 43.639 15.768 43.639 16.56ZM42.319 11.324C41.263 11.324 40.449 11.016 39.899 10.356C39.327 9.718 39.041 8.86 39.041 7.804C39.041 6.748 39.327 5.912 39.899 5.252C40.449 4.614 41.263 4.284 42.319 4.284C43.375 4.284 44.189 4.614 44.761 5.252C45.311 5.912 45.597 6.748 45.597 7.804C45.597 8.86 45.311 9.718 44.761 10.356C44.189 11.016 43.375 11.324 42.319 11.324ZM48.105 11.17V2.282H46.851V1.182H49.425V5.626H52.175V1.402H50.921V0.301999H53.495V11.17H52.175V6.726H49.425V11.17H48.105ZM42.319 5.384C41.615 5.384 41.109 5.626 40.823 6.066C40.515 6.528 40.361 7.1 40.361 7.804C40.361 8.508 40.515 9.102 40.823 9.542C41.109 10.004 41.615 10.224 42.319 10.224C43.023 10.224 43.529 10.004 43.837 9.542C44.123 9.102 44.277 8.508 44.277 7.804C44.277 7.1 44.123 6.528 43.837 6.066C43.529 5.626 43.023 5.384 42.319 5.384ZM46.213 3.338H38.425V2.238H41.659V0.301999H42.979V2.238H46.213V3.338ZM65.337 0.301999H68.241V6.022H71.321V7.122H68.241V18.65C68.241 18.782 68.263 18.87 68.307 18.914C68.351 18.958 68.417 18.98 68.549 18.98H69.341V20.08H68.153C67.713 20.08 67.383 19.97 67.207 19.75C67.009 19.53 66.921 19.2 66.921 18.76V1.402H65.337V0.301999ZM59.617 6.88C59.529 7.342 59.353 7.782 59.111 8.222C58.847 8.662 58.561 9.08 58.231 9.454C57.879 9.85 57.527 10.202 57.131 10.51C56.713 10.84 56.317 11.104 55.921 11.28L55.217 10.422C55.701 10.158 56.185 9.85 56.647 9.454C57.087 9.08 57.505 8.64 57.857 8.112C58.187 7.628 58.451 7.034 58.671 6.374C58.847 5.736 58.957 5.01 58.957 4.174V2.634H60.277V4.174C60.277 5.01 60.365 5.736 60.585 6.374C60.783 7.034 61.047 7.628 61.399 8.112C61.729 8.64 62.125 9.08 62.587 9.454C63.027 9.85 63.511 10.158 64.017 10.422L63.313 11.28C62.917 11.104 62.521 10.84 62.125 10.51C61.707 10.202 61.333 9.85 61.003 9.454C60.651 9.08 60.365 8.662 60.123 8.222C59.859 7.782 59.705 7.342 59.617 6.88ZM78.021 6.242C78.021 5.692 78.109 5.186 78.307 4.702C78.483 4.24 78.747 3.844 79.099 3.492C78.461 3.448 78.043 3.294 77.845 3.008C77.625 2.744 77.515 2.238 77.515 1.534H78.835C78.835 1.908 78.901 2.15 79.033 2.238C79.165 2.37 79.429 2.414 79.825 2.414H81.893H82.069C82.663 2.414 83.213 2.502 83.719 2.678C84.203 2.876 84.643 3.14 84.995 3.448C85.347 3.8 85.611 4.196 85.831 4.658C86.007 5.142 86.117 5.67 86.117 6.242C86.117 6.814 86.007 7.342 85.831 7.804C85.611 8.288 85.347 8.706 84.995 9.014C84.643 9.366 84.203 9.608 83.719 9.784C83.213 9.982 82.663 10.07 82.069 10.07C81.453 10.07 80.903 9.982 80.419 9.784C79.913 9.608 79.495 9.366 79.143 9.014C78.791 8.706 78.505 8.288 78.329 7.804C78.109 7.342 78.021 6.814 78.021 6.242ZM90.913 17.99V18.672C90.913 19.2 90.803 19.552 90.583 19.772C90.363 19.97 89.923 20.08 89.285 20.08H82.905C82.245 20.08 81.827 19.97 81.607 19.772C81.387 19.552 81.277 19.2 81.277 18.672V15.35H89.373V13.26H81.277V12.16H90.693V16.45H82.597V18.518C82.597 18.826 82.751 18.98 83.059 18.98H89.131C89.439 18.98 89.593 18.826 89.593 18.518V17.99H90.913ZM79.341 6.242C79.341 7.034 79.583 7.694 80.067 8.2C80.551 8.728 81.211 8.97 82.069 8.97C82.905 8.97 83.587 8.728 84.071 8.2C84.555 7.694 84.797 7.034 84.797 6.242C84.797 5.45 84.555 4.812 84.071 4.284C83.587 3.778 82.905 3.514 82.069 3.514H81.937C81.123 3.558 80.485 3.822 80.045 4.306C79.561 4.834 79.341 5.472 79.341 6.242ZM87.789 0.301999H90.693V4.416H93.773V5.516H90.693V10.51H89.373V1.402H87.789V0.301999ZM100.071 20.08C99.411 20.08 98.993 19.97 98.773 19.772C98.553 19.552 98.443 19.2 98.443 18.672V14.052C98.047 13.964 97.783 13.766 97.673 13.502C97.541 13.238 97.497 12.842 97.497 12.27H98.817C98.817 12.578 98.883 12.776 99.015 12.864C99.147 12.996 99.411 13.04 99.807 13.04H108.299V20.08H100.071ZM99.763 14.14V18.518C99.763 18.826 99.917 18.98 100.225 18.98H106.979V14.14H99.763ZM102.843 8.42V9.102C102.843 9.63 102.733 10.004 102.513 10.202C102.293 10.422 101.853 10.51 101.215 10.51H96.595C95.935 10.51 95.517 10.422 95.297 10.202C95.077 10.004 94.967 9.63 94.967 9.102V5.692H101.303V3.514H94.967V2.414H102.623V6.792H96.287V8.948C96.287 9.256 96.441 9.41 96.749 9.41H101.061C101.369 9.41 101.523 9.256 101.523 8.948V8.42H102.843ZM105.395 0.301999H108.299V11.17H106.979V1.402H105.395V0.301999Z" fill="#5E4036"/>
</svg>
