<svg width="40" height="40" viewBox="0 0 40 40" fill="none" xmlns="http://www.w3.org/2000/svg">
<path d="M18.1348 21.7578C17.7207 21.7578 17.3652 21.6641 17.0684 21.4766C16.7754 21.2852 16.5527 21.0195 16.4004 20.6797C16.252 20.3398 16.1777 19.9453 16.1777 19.4961C16.1777 19.0469 16.2559 18.6523 16.4121 18.3125C16.5684 17.9688 16.793 17.7012 17.0859 17.5098C17.3789 17.3184 17.7285 17.2227 18.1348 17.2227C18.5488 17.2227 18.9023 17.3184 19.1953 17.5098C19.4883 17.6973 19.709 17.9629 19.8574 18.3066C20.0098 18.6465 20.0879 19.043 20.0918 19.4961C20.0879 19.9492 20.0098 20.3457 19.8574 20.6855C19.7051 21.0254 19.4824 21.2891 19.1895 21.4766C18.8965 21.6641 18.5449 21.7578 18.1348 21.7578ZM17.373 19.4961C17.377 19.8711 17.4434 20.168 17.5723 20.3867C17.7051 20.6016 17.8926 20.7109 18.1348 20.7148C18.3809 20.7109 18.5684 20.6016 18.6973 20.3867C18.8262 20.168 18.8926 19.8711 18.8965 19.4961C18.8926 19.1133 18.8281 18.8125 18.7031 18.5938C18.5781 18.375 18.3887 18.2656 18.1348 18.2656C17.8926 18.2695 17.7051 18.3828 17.5723 18.6055C17.4434 18.8281 17.377 19.125 17.373 19.4961ZM23.2324 17.5156H24.5449L18.709 26H17.3965L23.2324 17.5156ZM21.9082 24.0195C21.9082 23.5703 21.9844 23.1758 22.1367 22.8359C22.293 22.4922 22.5176 22.2246 22.8105 22.0332C23.1035 21.8418 23.4512 21.7461 23.8535 21.7461C24.2715 21.7461 24.627 21.8418 24.9199 22.0332C25.2168 22.2246 25.4395 22.4902 25.5879 22.8301C25.7402 23.1699 25.8184 23.5664 25.8223 24.0195C25.8184 24.4727 25.7402 24.8691 25.5879 25.209C25.4355 25.5488 25.2109 25.8125 24.9141 26C24.6211 26.1875 24.2676 26.2812 23.8535 26.2812C23.4434 26.2812 23.0918 26.1875 22.7988 26C22.5059 25.8086 22.2832 25.543 22.1309 25.2031C21.9824 24.8633 21.9082 24.4688 21.9082 24.0195ZM23.1035 24.0195C23.1074 24.3945 23.1738 24.6914 23.3027 24.9102C23.4355 25.1289 23.6191 25.2383 23.8535 25.2383C24.1035 25.2383 24.293 25.1309 24.4219 24.916C24.5547 24.6973 24.623 24.3984 24.627 24.0195C24.623 23.6367 24.5566 23.3379 24.4277 23.123C24.3027 22.9043 24.1113 22.7969 23.8535 22.8008C23.6152 22.7969 23.4316 22.9062 23.3027 23.1289C23.1738 23.3516 23.1074 23.6484 23.1035 24.0195Z" fill="#81ADFF"/>
<path d="M33 23.2338C32.3104 38.9236 8.6915 38.9206 8.00375 23.2338C7.82973 16.1083 13.7464 9.00451 19.1734 5.38955C19.5526 5.13843 20.0166 5.00161 20.4943 5.00001C20.972 4.99841 21.4372 5.13212 21.8187 5.38069C21.8664 5.41019 24.7352 7.19806 27.5991 10.447C30.9218 14.201 33.0117 18.6214 33 23.2338ZM28.2984 23.2338C27.8431 18.0764 25.0546 13.2887 20.4993 10.0736C16.0079 13.2521 13.1834 18.0942 12.7102 23.1415C13.0755 33.0324 27.8701 33.0363 28.2984 23.2338Z" fill="#81ADFF"/>
</svg>
