<svg width="256" height="256" viewBox="0 0 256 256" fill="none" xmlns="http://www.w3.org/2000/svg">
<rect width="256" height="256" rx="10" fill="#5E4036"/>
<path d="M95.4536 118.323V119.924C95.4536 121.163 95.1955 121.989 94.6792 122.505C94.1629 122.97 93.1303 123.228 91.6331 123.228H76.661C75.1121 123.228 74.1312 122.97 73.6149 122.505C73.0986 121.989 72.8405 121.163 72.8405 119.924V112.128H91.8396V107.223H72.8405V104.642H94.9373V114.709H75.9382V119.562C75.9382 120.285 76.2996 120.647 77.0224 120.647H91.2717C91.9945 120.647 92.3559 120.285 92.3559 119.562V118.323H95.4536ZM88.1224 76.8142H94.9373V86.4687H102.165V89.0501H94.9373V100.77H91.8396V79.3956H88.1224V76.8142ZM69.5363 99.2208C67.9874 99.2208 67.0065 99.0143 66.4902 98.4981C65.9739 98.0334 65.7158 97.1557 65.7158 95.9166V81.7705H68.8135V95.5552C68.8135 96.278 69.1749 96.6394 69.8977 96.6394H84.1987V99.2208H69.5363ZM116.584 101.286C115.345 100.305 114.312 99.1692 113.434 97.9301C112.505 96.6911 111.679 95.3487 111.008 93.8515C110.285 95.5036 109.407 96.9492 108.375 98.2399C107.291 99.5822 106.103 100.718 104.812 101.751L103.005 99.7371C104.967 98.1883 106.516 96.4329 107.704 94.3678C108.839 92.4059 109.459 89.9278 109.459 87.0366V82.2868H112.557V87.0366C112.557 89.4631 112.918 91.4766 113.692 93.1287C114.415 94.8325 115.345 96.3813 116.584 97.7753C117.771 96.3813 118.752 94.8325 119.526 93.1287C120.249 91.4766 120.611 89.4631 120.611 87.0366V82.2868H123.708V87.0366C123.708 89.9278 124.276 92.4059 125.464 94.3678C126.6 96.4329 128.2 98.1883 130.162 99.7371L128.355 101.751C127.013 100.718 125.877 99.5822 124.844 98.2399C123.76 96.9492 122.882 95.5036 122.159 93.8515C120.817 96.846 118.959 99.3241 116.584 101.286ZM131.504 76.8142H138.319V119.872C138.319 120.182 138.371 120.388 138.474 120.492C138.577 120.595 138.732 120.647 139.042 120.647H140.901V123.228H138.113C137.08 123.228 136.306 122.97 135.893 122.454C135.428 121.937 135.221 121.163 135.221 120.13V79.3956H131.504V76.8142ZM168.138 76.8142H174.953V90.2375H182.181V92.819H174.953V119.872C174.953 120.182 175.005 120.388 175.108 120.492C175.211 120.595 175.366 120.647 175.676 120.647H177.534V123.228H174.746C173.714 123.228 172.939 122.97 172.526 122.454C172.062 121.937 171.855 121.163 171.855 120.13V79.3956H168.138V76.8142ZM145.731 83.3194H163.698V102.319H160.6V85.9008H145.731V83.3194ZM79.6957 145.561C79.6957 144.115 79.9022 142.721 80.4185 141.482C80.8832 140.295 81.5543 139.262 82.4837 138.384C81.6576 138.384 81.0381 138.281 80.5218 138.075C80.0055 137.92 79.5925 137.662 79.3343 137.249C79.0246 136.939 78.8181 136.474 78.7148 135.855C78.5599 135.338 78.5083 134.616 78.5083 133.738H81.606C81.606 134.616 81.7609 135.184 82.0706 135.39C82.3804 135.7 82.9999 135.803 83.9292 135.803H89.1953C90.5893 135.803 91.88 136.061 93.0674 136.526C94.2032 137.042 95.2358 137.662 96.0619 138.488C96.8879 139.365 97.5074 140.398 98.0237 141.585C98.4368 142.825 98.6949 144.115 98.6949 145.561C98.6949 147.006 98.4368 148.349 98.0237 149.536C97.5074 150.775 96.8879 151.756 96.0619 152.582C95.2358 153.46 94.2032 154.131 93.0674 154.596C91.88 155.112 90.5893 155.319 89.1953 155.319C87.7497 155.319 86.459 155.112 85.3232 154.596C84.1358 154.131 83.1548 153.46 82.3288 152.582C81.5027 151.756 80.8316 150.775 80.4185 149.536C79.9022 148.349 79.6957 147.006 79.6957 145.561ZM101.121 144.012H108.401V132.396H104.684V129.814H111.499V172.872C111.499 173.182 111.55 173.388 111.654 173.492C111.757 173.595 111.912 173.647 112.221 173.647H114.08V176.228H111.292C110.26 176.228 109.485 175.97 109.072 175.454C108.608 174.937 108.401 174.163 108.401 173.13V146.593H101.121V144.012ZM82.7934 145.561C82.7934 146.593 82.9483 147.574 83.2581 148.4C83.5162 149.278 83.9292 150.052 84.4972 150.672C85.0134 151.343 85.6846 151.859 86.5107 152.169C87.2851 152.582 88.1628 152.737 89.1953 152.737C90.1762 152.737 91.0539 152.582 91.88 152.169C92.6544 151.859 93.3256 151.343 93.8935 150.672C94.4098 150.052 94.8744 149.278 95.1842 148.4C95.4423 147.574 95.5972 146.593 95.5972 145.561C95.5972 144.528 95.4423 143.599 95.1842 142.721C94.8744 141.895 94.4098 141.121 93.8935 140.45C93.3256 139.83 92.6544 139.314 91.88 138.901C91.0539 138.591 90.1762 138.384 89.1953 138.384H88.8855C87.9562 138.436 87.0786 138.643 86.3558 139.004C85.5813 139.417 84.9618 139.882 84.4455 140.501C83.8776 141.172 83.4646 141.947 83.2064 142.773C82.8967 143.651 82.7934 144.58 82.7934 145.561ZM129.389 170.033C129.389 168.071 130.319 166.573 132.229 165.438C134.088 164.405 136.927 163.837 140.696 163.837C144.413 163.837 147.253 164.405 149.163 165.438C151.022 166.573 152.003 168.071 152.003 170.033C152.003 171.994 151.022 173.492 149.163 174.627C147.253 175.66 144.413 176.228 140.696 176.228C136.927 176.228 134.088 175.66 132.229 174.627C130.319 173.492 129.389 171.994 129.389 170.033ZM139.818 141.947H149.163V132.396H145.446V129.814H152.261V154.286H149.163V144.528H139.818V141.947ZM132.487 170.033C132.487 171.375 133.21 172.304 134.656 172.872C136.049 173.388 138.063 173.647 140.696 173.647C143.277 173.647 145.343 173.388 146.788 172.872C148.182 172.304 148.905 171.375 148.905 170.033C148.905 168.69 148.182 167.761 146.788 167.193C145.343 166.677 143.277 166.419 140.696 166.419C138.063 166.419 136.049 166.677 134.656 167.193C133.21 167.761 132.487 168.69 132.487 170.033ZM122.575 152.221C121.026 152.221 120.045 152.014 119.528 151.498C119.012 151.033 118.754 150.156 118.754 148.917V135.287H128.615V137.868H121.852V148.555C121.852 149.278 122.213 149.639 122.936 149.639H128.615V152.221H122.575ZM134.191 152.221C132.642 152.221 131.661 152.014 131.145 151.498C130.629 151.033 130.37 150.156 130.37 148.917V135.287H140.231V137.868H133.468V148.555C133.468 149.278 133.829 149.639 134.552 149.639H140.231V152.221H134.191ZM154.068 161.359H127.324V158.778H139.147V155.06H142.245V158.778H154.068V161.359ZM158.847 154.183H192.922V156.764H158.847V154.183ZM167.882 176.228C166.333 176.228 165.352 175.97 164.836 175.505C164.32 174.989 164.061 174.163 164.061 172.924V162.598H167.159V172.562C167.159 173.285 167.52 173.647 168.243 173.647H187.707V176.228H167.882ZM170.205 148.297C168.656 148.297 167.675 148.091 167.159 147.574C166.643 147.11 166.385 146.232 166.385 144.993V132.396H185.384V134.977H169.482V144.632C169.482 145.354 169.844 145.716 170.567 145.716H185.384V148.297H170.205Z" fill="#EDE6DD"/>
<line x1="32" y1="69.0681" x2="224.402" y2="69.0681" stroke="#EDE6DD" stroke-width="2.06884"/>
<line x1="32" y1="187.682" x2="224.402" y2="187.682" stroke="#EDE6DD" stroke-width="2.06884"/>
<line x1="44.7579" y1="57" x2="44.7579" y2="199.75" stroke="#EDE6DD" stroke-width="2.06884"/>
<line x1="211.644" y1="57" x2="211.644" y2="199.75" stroke="#EDE6DD" stroke-width="2.06884"/>
</svg>
