<svg width="40" height="40" viewBox="0 0 40 40" fill="none" xmlns="http://www.w3.org/2000/svg">
<path d="M29.1521 7.96356C29.6196 7.96356 30 8.37172 30 8.87343C30 9.37514 29.6196 9.78313 29.1521 9.78313H25.4914C24.3672 9.73402 24.3659 8.01336 25.4914 7.96361L29.1521 7.96356Z" fill="#71C6FF"/>
<path d="M17.9836 24.6396C19.7705 25.753 19.0927 28.731 16.9493 28.7639C14.6844 28.6892 14.1157 25.5679 16.1012 24.5245V11.4916C16.1012 10.9899 16.4817 10.5817 16.9493 10.5817C17.4169 10.5817 17.7974 10.9898 17.7974 11.4916V24.5244L17.9836 24.6396Z" fill="#71C6FF"/>
<path d="M22.0684 21.4617C26.0246 25.9543 23.3506 33.9013 16.9851 34C10.5995 33.8001 7.9058 26.0111 11.8304 21.4601V11.4914C11.8304 8.4635 14.1268 6 16.9493 6C19.7719 6 22.0684 8.4635 22.0684 11.4914V21.4617ZM20.7287 30.4958C22.7289 28.3664 22.6749 24.5906 20.6013 22.5282C20.4381 22.3515 20.3478 22.1217 20.3479 21.8834V11.4916C20.3472 9.46841 18.8124 7.82188 16.9265 7.82111C15.0386 7.82111 13.503 9.46761 13.502 11.4913V21.8329C13.5018 22.0682 13.4134 22.2952 13.2536 22.4708C11.0934 24.451 10.9063 28.2249 12.8148 30.436C14.4602 32.4921 17.5016 32.9565 19.6279 31.4218C20.0407 31.1696 20.4118 30.8574 20.7287 30.4958Z" fill="#71C6FF"/>
</svg>
