<svg width="19" height="21" viewBox="0 0 19 21" fill="none" xmlns="http://www.w3.org/2000/svg">
<path d="M11.4453 20H7.5547M15.3359 7C15.3359 5.4087 14.721 3.88258 13.6266 2.75736C12.5322 1.63214 11.0478 1 9.5 1C7.95223 1 6.46785 1.63214 5.3734 2.75736C4.27896 3.88258 3.66411 5.4087 3.66411 7C3.66411 10.0902 2.90591 12.206 2.05892 13.6054C1.34447 14.7859 0.987249 15.3761 1.00035 15.5408C1.01485 15.7231 1.05242 15.7926 1.19532 15.9016C1.32437 16 1.90614 16 3.06968 16H15.9303C17.0939 16 17.6756 16 17.8047 15.9016C17.9476 15.7926 17.9851 15.7231 17.9997 15.5408C18.0127 15.3761 17.6555 14.7859 16.9411 13.6054C16.0941 12.206 15.3359 10.0902 15.3359 7Z" stroke="#5E4036" stroke-width="2" stroke-linecap="round" stroke-linejoin="round"/>
</svg>
