<svg width="40" height="40" viewBox="0 0 40 40" fill="none" xmlns="http://www.w3.org/2000/svg">
<path d="M20.707 25.3215C25.7614 25.5582 25.7585 33.7641 20.7077 34C20.0323 33.9942 19.3716 33.7934 18.7995 33.4199C17.9088 32.9065 18.1753 31.3258 19.2427 31.3012C19.4311 31.3019 19.6146 31.3629 19.7685 31.4759C20.0494 31.6551 20.3709 31.7537 20.7003 31.7619C23.1544 31.6526 23.1553 27.6732 20.7071 27.5592H15.0516C14.5099 27.5592 14.0693 27.0571 14.0693 26.4401C14.0693 25.8231 14.5099 25.3213 15.0516 25.3213L20.707 25.3215Z" fill="#5E4036"/>
<path d="M29.1899 18.8807C34.243 19.1165 34.243 27.3237 29.1899 27.5593C27.8853 27.4973 27.8882 25.3817 29.1899 25.3215C31.6369 25.2071 31.637 21.233 29.1899 21.1189H23.5344C22.9926 21.1189 22.5521 20.6169 22.5521 19.9999C22.5521 19.3828 22.9926 18.8807 23.5344 18.8807L29.1899 18.8807Z" fill="#5E4036"/>
<path d="M9.39629 25.3215C10.6993 25.3821 10.6994 27.4984 9.39629 27.5593H7.98261C6.67967 27.4985 6.6793 25.3823 7.98261 25.3215H9.39629Z" fill="#5E4036"/>
<path d="M7.98257 21.1189C6.68173 21.0592 6.67728 18.9427 7.98257 18.8808H17.8792C19.18 18.9404 19.1847 21.057 17.8792 21.1189H7.98257Z" fill="#5E4036"/>
<path d="M7.98257 14.6784C7.4408 14.6784 7 14.1764 7 13.5592C7.05416 12.0748 8.91112 12.0752 8.96511 13.5592C8.96511 14.1764 8.52438 14.6784 7.98257 14.6784Z" fill="#5E4036"/>
<path d="M13.6378 14.6784C12.3368 14.6188 12.3322 12.5025 13.6378 12.4405H23.5344C24.5519 12.4405 25.3795 11.4979 25.3795 10.339C25.3912 8.77812 23.8817 7.71422 22.6233 8.50574C22.1462 8.83601 21.5288 8.63846 21.2634 8.11168C20.9923 7.56957 21.1567 6.88495 21.6274 6.57941C22.1998 6.20598 22.8607 6.00538 23.5363 6C28.5878 6.23646 28.5871 14.4433 23.5343 14.6784L13.6378 14.6784Z" fill="#5E4036"/>
<path d="M32.0173 14.6784C31.4756 14.6784 31.035 14.1764 31.035 13.5593C31.0891 12.0746 32.9459 12.0752 33 13.5593C33 14.1764 32.5591 14.6784 32.0173 14.6784Z" fill="#5E4036"/>
</svg>
