<svg width="40" height="40" viewBox="0 0 40 40" fill="none" xmlns="http://www.w3.org/2000/svg">
<path d="M31.3584 10.9805C31.7843 12.0437 32 13.1353 32 14.2253C32 17.167 29.8371 19.5604 27.1784 19.5604C24.5197 19.5604 22.3565 17.167 22.3565 14.2253C22.3565 13.1644 22.5661 12.0975 22.9794 11.0538C23.3169 10.2012 23.7916 9.35944 24.3897 8.55173C25.3611 7.24021 26.3774 6.4015 26.6658 6.17579C26.812 6.06253 26.991 6.00082 27.1753 6.0001C27.3595 5.99938 27.539 6.05968 27.6861 6.17179C28.6395 6.82848 30.6416 9.00995 31.3584 10.9805ZM30.1863 14.2253C30.0104 11.899 28.9348 9.73868 27.1773 8.28872C25.4445 9.72257 24.3547 11.907 24.172 14.1836C24.313 18.6454 30.021 18.6473 30.1863 14.2253Z" fill="#81ADFF"/>
<path d="M23.3915 22.8966C24.6734 24.5895 25.4795 26.5845 25.4752 28.6646C25.4752 31.6064 23.3119 34 20.6533 34C17.9946 34 15.8314 31.6065 15.8314 28.6646C15.8314 27.6039 16.041 26.537 16.4543 25.4932C16.792 24.6409 17.2667 23.7989 17.8648 22.991C18.8359 21.6798 19.8523 20.841 20.1406 20.6151C20.287 20.5019 20.466 20.4402 20.6503 20.4396C20.8346 20.4389 21.0141 20.4993 21.1612 20.6114C21.1796 20.6248 22.2865 21.4313 23.3915 22.8966ZM23.6613 28.6646C23.4855 26.3381 22.4097 24.1786 20.6522 22.7281C18.9198 24.1622 17.8294 26.3463 17.6471 28.623C17.7883 33.0849 23.496 33.0864 23.6613 28.6646Z" fill="#81ADFF"/>
<path d="M17.6453 14.2253C17.3793 21.3029 8.26679 21.3016 8.00145 14.2253C7.93431 11.011 10.217 7.80644 12.3108 6.17572C12.4572 6.06244 12.6362 6.00073 12.8205 6.00001C13.0048 5.99928 13.1842 6.0596 13.3314 6.17173C13.3499 6.18504 14.4567 6.99155 15.5616 8.45714C16.8435 10.1506 17.6499 12.1446 17.6453 14.2253ZM15.8314 14.2253C15.6557 11.8988 14.5799 9.73903 12.8224 8.28872C11.0895 9.72254 9.99983 11.9068 9.81728 14.1836C9.95818 18.6455 15.6662 18.6472 15.8314 14.2253Z" fill="#81ADFF"/>
</svg>
