<svg width="23" height="23" viewBox="0 0 23 23" fill="none" xmlns="http://www.w3.org/2000/svg">
<path d="M11.5 0.25C11.9272 0.25 12.2802 0.567419 12.3361 0.979259L12.3438 1.09375L12.3427 3.10492C16.3294 3.49852 19.5014 6.67059 19.8961 10.6591L19.9375 10.6562H21.9062C22.3722 10.6562 22.75 11.034 22.75 11.5C22.75 11.9272 22.4325 12.2802 22.0208 12.3361L21.9062 12.3438L19.8944 12.3426C19.5015 16.3294 16.3294 19.5014 12.3409 19.8961L12.3438 19.9375V21.9062C12.3438 22.3722 11.966 22.75 11.5 22.75C11.0728 22.75 10.7198 22.4325 10.6639 22.0208L10.6562 21.9062L10.6574 19.8944C6.67059 19.5015 3.49852 16.3294 3.10388 12.3409L3.0625 12.3438H1.09375C0.627764 12.3438 0.25 11.966 0.25 11.5C0.25 11.0728 0.567419 10.7198 0.979259 10.6639L1.09375 10.6562L3.10492 10.6573C3.49852 6.67059 6.67059 3.49852 10.6591 3.10388L10.6562 3.0625V1.09375C10.6562 0.627764 11.034 0.25 11.5 0.25ZM11.5 4.75C7.77208 4.75 4.75 7.77208 4.75 11.5C4.75 15.2279 7.77208 18.25 11.5 18.25C15.2279 18.25 18.25 15.2279 18.25 11.5C18.25 7.77208 15.2279 4.75 11.5 4.75ZM11.5 7C13.9852 7 16 9.01472 16 11.5C16 13.9852 13.9852 16 11.5 16C9.01472 16 7 13.9852 7 11.5C7 9.01472 9.01472 7 11.5 7Z" fill="#212121"/>
<path d="M11.5 0.25C11.9272 0.25 12.2802 0.567419 12.3361 0.979259L12.3438 1.09375L12.3427 3.10492C16.3294 3.49852 19.5014 6.67059 19.8961 10.6591L19.9375 10.6562H21.9062C22.3722 10.6562 22.75 11.034 22.75 11.5C22.75 11.9272 22.4325 12.2802 22.0208 12.3361L21.9062 12.3438L19.8944 12.3426C19.5015 16.3294 16.3294 19.5014 12.3409 19.8961L12.3438 19.9375V21.9062C12.3438 22.3722 11.966 22.75 11.5 22.75C11.0728 22.75 10.7198 22.4325 10.6639 22.0208L10.6562 21.9062L10.6574 19.8944C6.67059 19.5015 3.49852 16.3294 3.10388 12.3409L3.0625 12.3438H1.09375C0.627764 12.3438 0.25 11.966 0.25 11.5C0.25 11.0728 0.567419 10.7198 0.979259 10.6639L1.09375 10.6562L3.10492 10.6573C3.49852 6.67059 6.67059 3.49852 10.6591 3.10388L10.6562 3.0625V1.09375C10.6562 0.627764 11.034 0.25 11.5 0.25ZM11.5 4.75C7.77208 4.75 4.75 7.77208 4.75 11.5C4.75 15.2279 7.77208 18.25 11.5 18.25C15.2279 18.25 18.25 15.2279 18.25 11.5C18.25 7.77208 15.2279 4.75 11.5 4.75ZM11.5 7C13.9852 7 16 9.01472 16 11.5C16 13.9852 13.9852 16 11.5 16C9.01472 16 7 13.9852 7 11.5C7 9.01472 9.01472 7 11.5 7Z" fill="#212121"/>
</svg>
