<svg width="23" height="23" viewBox="0 0 23 23" fill="none" xmlns="http://www.w3.org/2000/svg">
<path d="M11.5 1C11.8987 1 12.2282 1.29626 12.2804 1.68064L12.2875 1.7875L12.2866 3.6646C16.0074 4.03195 18.968 6.99255 19.3364 10.7151L19.375 10.7125H21.2125C21.6474 10.7125 22 11.0651 22 11.5C22 11.8987 21.7037 12.2282 21.3194 12.2804L21.2125 12.2875L19.3348 12.2864C18.968 16.0074 16.0074 18.968 12.2849 19.3364L12.2875 19.375V21.2125C12.2875 21.6474 11.9349 22 11.5 22C11.1013 22 10.7718 21.7037 10.7196 21.3194L10.7125 21.2125L10.7135 19.3348C6.99255 18.968 4.03195 16.0074 3.66362 12.2849L3.625 12.2875H1.7875C1.35258 12.2875 1 11.9349 1 11.5C1 11.1013 1.29626 10.7718 1.68064 10.7196L1.7875 10.7125L3.6646 10.7134C4.03195 6.99255 6.99255 4.03195 10.7151 3.66362L10.7125 3.625V1.7875C10.7125 1.35258 11.0651 1 11.5 1ZM11.5 5.2C8.0206 5.2 5.2 8.0206 5.2 11.5C5.2 14.9794 8.0206 17.8 11.5 17.8C14.9794 17.8 17.8 14.9794 17.8 11.5C17.8 8.0206 14.9794 5.2 11.5 5.2ZM11.5 7.3C13.8196 7.3 15.7 9.1804 15.7 11.5C15.7 13.8196 13.8196 15.7 11.5 15.7C9.1804 15.7 7.3 13.8196 7.3 11.5C7.3 9.1804 9.1804 7.3 11.5 7.3Z" fill="#A39089" stroke="#A39089" stroke-width="0.5"/>
<path d="M11.5 1C11.8987 1 12.2282 1.29626 12.2804 1.68064L12.2875 1.7875L12.2866 3.6646C16.0074 4.03195 18.968 6.99255 19.3364 10.7151L19.375 10.7125H21.2125C21.6474 10.7125 22 11.0651 22 11.5C22 11.8987 21.7037 12.2282 21.3194 12.2804L21.2125 12.2875L19.3348 12.2864C18.968 16.0074 16.0074 18.968 12.2849 19.3364L12.2875 19.375V21.2125C12.2875 21.6474 11.9349 22 11.5 22C11.1013 22 10.7718 21.7037 10.7196 21.3194L10.7125 21.2125L10.7135 19.3348C6.99255 18.968 4.03195 16.0074 3.66362 12.2849L3.625 12.2875H1.7875C1.35258 12.2875 1 11.9349 1 11.5C1 11.1013 1.29626 10.7718 1.68064 10.7196L1.7875 10.7125L3.6646 10.7134C4.03195 6.99255 6.99255 4.03195 10.7151 3.66362L10.7125 3.625V1.7875C10.7125 1.35258 11.0651 1 11.5 1ZM11.5 5.2C8.0206 5.2 5.2 8.0206 5.2 11.5C5.2 14.9794 8.0206 17.8 11.5 17.8C14.9794 17.8 17.8 14.9794 17.8 11.5C17.8 8.0206 14.9794 5.2 11.5 5.2ZM11.5 7.3C13.8196 7.3 15.7 9.1804 15.7 11.5C15.7 13.8196 13.8196 15.7 11.5 15.7C9.1804 15.7 7.3 13.8196 7.3 11.5C7.3 9.1804 9.1804 7.3 11.5 7.3Z" fill="#A39089" stroke="#A39089" stroke-width="0.5"/>
</svg>
