<svg width="40" height="40" viewBox="0 0 40 40" fill="none" xmlns="http://www.w3.org/2000/svg">
<path d="M32.1087 10.6102C33.2921 10.6604 33.3021 12.5044 32.1087 12.5595H12.7648C12.2707 12.5595 11.8686 12.1223 11.8686 11.5846C11.8686 11.047 12.2707 10.61 12.7648 10.61L32.1087 10.6102Z" fill="#B68D51"/>
<path d="M29.5294 16.2204C30.7154 16.2716 30.7206 18.1158 29.5294 18.1696H17.9231C17.429 18.1696 17.0272 17.7326 17.0272 17.1947C17.0272 16.6569 17.429 16.2203 17.9231 16.2203L29.5294 16.2204Z" fill="#B68D51"/>
<path d="M23.0817 21.8305C24.2685 21.8827 24.272 23.7262 23.0817 23.78H15.3442C14.8501 23.78 14.4479 23.3427 14.4479 22.8052C14.4479 22.2677 14.8501 21.8303 15.3442 21.8303L23.0817 21.8305Z" fill="#B68D51"/>
<path d="M19.2129 27.4406C19.707 27.4406 20.1092 27.8778 20.1092 28.4154C20.1092 28.9531 19.707 29.3903 19.2129 29.3903H12.7649C11.5776 29.338 11.5748 27.4944 12.7649 27.4408L19.2129 27.4406Z" fill="#B68D51"/>
<path d="M17.9231 33.0508C19.1114 33.1032 19.1122 34.9471 17.9231 35H15.3442C14.8501 35 14.4479 34.5628 14.4479 34.0254C14.4479 33.488 14.8501 33.0508 15.3442 33.0508H17.9231Z" fill="#B68D51"/>
<path d="M27.8467 5.97487C27.8467 6.51227 27.4446 6.94974 26.9504 6.94974H8.89625C8.40197 6.94974 8 6.5124 8 5.97487C8 5.43735 8.40197 5 8.89625 5H26.9504C27.4445 5.00012 27.8467 5.43732 27.8467 5.97487Z" fill="#B68D51"/>
</svg>
