<svg width="40" height="40" viewBox="0 0 40 40" fill="none" xmlns="http://www.w3.org/2000/svg">
<path d="M6.02272 28.9333C6.58641 28.9333 7.04525 29.3997 7.04525 29.9728C6.98886 31.3519 5.05622 31.3513 5 29.9728C5 29.3996 5.45884 28.9333 6.02272 28.9333Z" fill="#50555C"/>
<path d="M19.2644 28.9301C21.4485 28.9324 23.2272 30.7409 23.2296 32.9612C23.2296 33.5341 22.771 34 22.2072 34C21.6433 34 21.1846 33.534 21.1846 32.9609C21.1838 32.4535 20.9816 31.9642 20.6166 31.5866C20.2571 31.2208 19.7789 31.0158 19.2706 31.009H11.9079C11.344 31.009 10.8855 30.5428 10.8855 29.9694C10.8855 29.3961 11.344 28.9299 11.9079 28.9299L19.2644 28.9301Z" fill="#50555C"/>
<path d="M22.2072 13.0616C21.6435 13.0616 21.1847 12.5953 21.1847 12.022C21.2412 10.6431 23.1734 10.6433 23.2296 12.022C23.2296 12.5953 22.771 13.0616 22.2072 13.0616Z" fill="#50555C"/>
<path d="M31.0351 22.9477C36.2929 23.1662 36.2943 30.7897 31.0351 31.0089C29.6764 30.9509 29.6814 28.9857 31.0351 28.9301C32.0937 28.9301 32.9553 28.0546 32.9553 26.978C32.9553 25.9014 32.0937 25.0261 31.035 25.0261H19.2644C18.7007 25.0261 18.2419 24.5601 18.2419 23.987C18.2419 23.4139 18.7007 22.9474 19.2644 22.9474H24.2681C25.1581 22.0974 25.869 21.1003 26.3643 20.0075L26.6959 19.2819C19.4611 20.388 13.3708 14.8043 13.3594 7.67469C7.73557 10.9501 6.87923 18.5665 11.4764 22.9474H13.3793C14.7334 23.0031 14.737 24.9691 13.3793 25.026H6.02272C5.45884 25.026 5 24.56 5 23.9869C5 23.4138 5.45884 22.9473 6.02272 22.9473H8.70515C6.18793 19.3904 5.73316 14.71 7.67047 10.8521C9.0279 8.09074 11.3619 6.03207 14.2427 5.05543C14.3971 5.0014 14.5641 4.98652 14.7268 5.01232C15.2957 5.09337 15.6725 5.6703 15.5813 6.19347C15.4923 6.73382 15.4424 7.27909 15.4319 7.82563C15.3262 13.865 21.423 19.0213 27.7655 16.8396C28.5133 16.5814 29.2383 17.2644 29.0997 18.0015C28.8106 19.7971 28.0522 21.4374 27.0356 22.9472L31.0351 22.9477Z" fill="#50555C"/>
<path d="M28.0923 13.0615C26.7371 13.0054 26.7352 11.0398 28.0923 10.9827H31.0409C32.1174 10.9829 32.966 10.027 32.9549 9.03715C32.9552 8.45785 33.4138 7.99142 33.9775 7.99142C34.5412 7.99142 35 8.45785 35 9.03099C34.9976 11.2509 33.2187 13.0591 31.0345 13.0616L28.0923 13.0615Z" fill="#50555C"/>
</svg>
