<svg width="40" height="40" viewBox="0 0 40 40" fill="none" xmlns="http://www.w3.org/2000/svg">
<path d="M33.9301 20.0058C35.3564 20.0686 35.3569 22.2614 33.9301 22.3243H32.3823C30.9556 22.2613 30.9555 20.0689 32.3823 20.0058H33.9301Z" fill="#EFC977"/>
<path d="M11.2484 12.8837C11.1049 12.8829 10.9632 12.8526 10.8323 12.7947C10.7014 12.7368 10.5843 12.6525 10.4885 12.5474L9.40493 11.3797C8.84294 10.6806 9.28489 9.48533 10.2336 9.4801C10.4881 9.48194 10.7328 9.57726 10.9197 9.74741L12.0047 10.9164C12.644 11.5911 12.2432 12.8781 11.2484 12.8837Z" fill="#EFC977"/>
<path d="M29.2866 25.0097C30.7079 25.0699 30.7187 27.2628 29.2866 27.3285H10.713C10.1199 27.3285 9.6377 26.8084 9.6377 26.1691C9.6377 25.5298 10.1199 25.0097 10.713 25.0097H12.7707L12.5142 24.3134C10.4984 19.0557 14.074 12.5008 19.9999 12.4999C25.9266 12.5011 29.5016 19.0562 27.4858 24.3134L27.2294 25.0097H29.2866ZM24.7941 24.7989C27.5375 20.8261 24.8268 14.797 19.9997 14.8185C15.0359 14.8268 12.4029 21.0297 15.347 25.0099H24.6529L24.7941 24.7989Z" fill="#EFC977"/>
<path d="M29.9352 9.29838C30.9864 9.31913 31.3672 10.6908 30.6218 11.3509L29.51 12.549C29.4165 12.6516 29.3026 12.7342 29.1754 12.7917C29.0482 12.8492 28.9104 12.8804 28.7704 12.8834C27.8104 12.8205 27.4494 11.5761 28.0737 10.9154L29.113 9.71138C29.2087 9.58503 29.3326 9.48205 29.4752 9.41043C29.6177 9.3388 29.7751 9.30047 29.9352 9.29838Z" fill="#EFC977"/>
<path d="M26.1912 31.6819C27.6179 31.7447 27.618 33.9372 26.1912 34H24.6433C23.2171 33.9374 23.2167 31.7447 24.6433 31.6819H26.1912Z" fill="#EFC977"/>
<path d="M18.4522 31.6819C19.0453 31.6819 19.5278 32.2016 19.5278 32.8408C19.5278 33.4801 19.0453 34 18.4522 34H13.8087C12.3831 33.9377 12.3812 31.7451 13.8087 31.6819H18.4522Z" fill="#EFC977"/>
<path d="M7.6177 20.0058C9.04418 20.0688 9.04462 22.2612 7.6177 22.3243H6.06976C4.64347 22.2614 4.64336 20.0688 6.06976 20.0058H7.6177Z" fill="#EFC977"/>
<path d="M19.9997 8.98032C19.4066 8.98032 18.9244 8.46061 18.9244 7.82117V6.15322C18.9835 4.61561 21.0164 4.61557 21.0755 6.15322V7.82117C21.0756 8.46068 20.5932 8.98032 19.9997 8.98032Z" fill="#EFC977"/>
</svg>
