<svg width="40" height="40" viewBox="0 0 40 40" fill="none" xmlns="http://www.w3.org/2000/svg">
<path fill-rule="evenodd" clip-rule="evenodd" d="M19 9V6H21V9H19ZM24.634 9.97381L26.134 7.37573L27.8661 8.37573L26.3661 10.9738L24.634 9.97381ZM20 27C23.866 27 27 23.866 27 20C27 16.134 23.866 13 20 13C16.134 13 13 16.134 13 20C13 23.866 16.134 27 20 27ZM20 29C24.9706 29 29 24.9706 29 20C29 15.0294 24.9706 11 20 11C15.0294 11 11 15.0294 11 20C11 24.9706 15.0294 29 20 29ZM31 19H34V21H31V19ZM31.6243 12.134L29.0263 13.634L30.0263 15.366L32.6243 13.866L31.6243 12.134ZM12.134 8.37573L13.634 10.9738L15.366 9.97381L13.866 7.37573L12.134 8.37573ZM9.97375 15.366L7.37567 13.866L8.37567 12.134L10.9737 13.634L9.97375 15.366ZM19 31V34H21V31H19ZM9 19H6V21H9V19ZM7.37562 26.134L9.97369 24.634L10.9737 26.366L8.37562 27.866L7.37562 26.134ZM13.634 29.0264L12.134 31.6244L13.8661 32.6244L15.3661 30.0264L13.634 29.0264ZM26.134 32.6244L24.634 30.0264L26.366 29.0264L27.866 31.6244L26.134 32.6244ZM29.0263 26.366L31.6244 27.866L32.6244 26.134L30.0263 24.634L29.0263 26.366Z" fill="url(#paint0_linear_342_4519)"/>
<defs>
<linearGradient id="paint0_linear_342_4519" x1="20" y1="6" x2="20" y2="34" gradientUnits="userSpaceOnUse">
<stop stop-color="#EFC977"/>
<stop offset="1" stop-color="#E07256"/>
</linearGradient>
</defs>
</svg>
