<svg width="40" height="40" viewBox="0 0 40 40" fill="none" xmlns="http://www.w3.org/2000/svg">
<path d="M28.1873 10.1727C28.645 10.2129 29.0015 10.6382 29 11.1409V19.5C29.0015 20.0041 28.645 20.4291 28.1884 20.4695C25.2907 20.7327 16.5268 21.5298 13.7648 21.7835V32.0368C13.719 33.3132 12.0525 33.3289 12 32.0368V6.96333C12.0463 5.68591 13.7125 5.67189 13.7648 6.96333V8.85855C16.4983 9.10959 25.3154 9.91145 28.1873 10.1727ZM17.0785 19.5439V11.0982L13.7647 10.8073V19.8349L17.0785 19.5439ZM22.1568 19.0684V11.5735L18.8431 11.2646V19.3776L22.157 19.0684L22.1568 19.0684ZM27.2353 18.6086V12.0333L23.9217 11.7243V18.9179L27.2354 18.6086" fill="black"/>
</svg>
