<svg width="369" height="160" viewBox="0 0 369 160" fill="none" xmlns="http://www.w3.org/2000/svg">
<rect width="369" height="160" fill="#2F576E"/>
<path d="M161.003 134.585V134.988C161.003 135.3 160.938 135.508 160.808 135.638C160.678 135.755 160.418 135.82 160.041 135.82H156.271C155.881 135.82 155.634 135.755 155.504 135.638C155.374 135.508 155.309 135.3 155.309 134.988V133.025H160.093V131.79H155.309V131.14H160.873V133.675H156.089V134.897C156.089 135.079 156.18 135.17 156.362 135.17H159.95C160.132 135.17 160.223 135.079 160.223 134.897V134.585H161.003ZM159.157 124.133H160.873V126.564H162.693V127.214H160.873V130.165H160.093V124.783H159.157V124.133ZM154.477 129.775C154.087 129.775 153.84 129.723 153.71 129.593C153.58 129.476 153.515 129.255 153.515 128.943V125.381H154.295V128.852C154.295 129.034 154.386 129.125 154.568 129.125H158.169V129.775H154.477ZM166.323 130.295C166.011 130.048 165.751 129.762 165.53 129.45C165.296 129.138 165.088 128.8 164.919 128.423C164.737 128.839 164.516 129.203 164.256 129.528C163.983 129.866 163.684 130.152 163.359 130.412L162.904 129.905C163.398 129.515 163.788 129.073 164.087 128.553C164.373 128.059 164.529 127.435 164.529 126.707V125.511H165.309V126.707C165.309 127.318 165.4 127.825 165.595 128.241C165.777 128.67 166.011 129.06 166.323 129.411C166.622 129.06 166.869 128.67 167.064 128.241C167.246 127.825 167.337 127.318 167.337 126.707V125.511H168.117V126.707C168.117 127.435 168.26 128.059 168.559 128.553C168.845 129.073 169.248 129.515 169.742 129.905L169.287 130.412C168.949 130.152 168.663 129.866 168.403 129.528C168.13 129.203 167.909 128.839 167.727 128.423C167.389 129.177 166.921 129.801 166.323 130.295ZM170.08 124.133H171.796V134.975C171.796 135.053 171.809 135.105 171.835 135.131C171.861 135.157 171.9 135.17 171.978 135.17H172.446V135.82H171.744C171.484 135.82 171.289 135.755 171.185 135.625C171.068 135.495 171.016 135.3 171.016 135.04V124.783H170.08V124.133ZM179.304 124.133H181.02V127.513H182.84V128.163H181.02V134.975C181.02 135.053 181.033 135.105 181.059 135.131C181.085 135.157 181.124 135.17 181.202 135.17H181.67V135.82H180.968C180.708 135.82 180.513 135.755 180.409 135.625C180.292 135.495 180.24 135.3 180.24 135.04V124.783H179.304V124.133ZM173.662 125.771H178.186V130.555H177.406V126.421H173.662V125.771ZM190.183 128.098C190.183 127.734 190.235 127.383 190.365 127.071C190.482 126.772 190.651 126.512 190.885 126.291C190.677 126.291 190.521 126.265 190.391 126.213C190.261 126.174 190.157 126.109 190.092 126.005C190.014 125.927 189.962 125.81 189.936 125.654C189.897 125.524 189.884 125.342 189.884 125.121H190.664C190.664 125.342 190.703 125.485 190.781 125.537C190.859 125.615 191.015 125.641 191.249 125.641H192.575C192.926 125.641 193.251 125.706 193.55 125.823C193.836 125.953 194.096 126.109 194.304 126.317C194.512 126.538 194.668 126.798 194.798 127.097C194.902 127.409 194.967 127.734 194.967 128.098C194.967 128.462 194.902 128.8 194.798 129.099C194.668 129.411 194.512 129.658 194.304 129.866C194.096 130.087 193.836 130.256 193.55 130.373C193.251 130.503 192.926 130.555 192.575 130.555C192.211 130.555 191.886 130.503 191.6 130.373C191.301 130.256 191.054 130.087 190.846 129.866C190.638 129.658 190.469 129.411 190.365 129.099C190.235 128.8 190.183 128.462 190.183 128.098ZM195.578 127.708H197.411V124.783H196.475V124.133H198.191V134.975C198.191 135.053 198.204 135.105 198.23 135.131C198.256 135.157 198.295 135.17 198.373 135.17H198.841V135.82H198.139C197.879 135.82 197.684 135.755 197.58 135.625C197.463 135.495 197.411 135.3 197.411 135.04V128.358H195.578V127.708ZM190.963 128.098C190.963 128.358 191.002 128.605 191.08 128.813C191.145 129.034 191.249 129.229 191.392 129.385C191.522 129.554 191.691 129.684 191.899 129.762C192.094 129.866 192.315 129.905 192.575 129.905C192.822 129.905 193.043 129.866 193.251 129.762C193.446 129.684 193.615 129.554 193.758 129.385C193.888 129.229 194.005 129.034 194.083 128.813C194.148 128.605 194.187 128.358 194.187 128.098C194.187 127.838 194.148 127.604 194.083 127.383C194.005 127.175 193.888 126.98 193.758 126.811C193.615 126.655 193.446 126.525 193.251 126.421C193.043 126.343 192.822 126.291 192.575 126.291H192.497C192.263 126.304 192.042 126.356 191.86 126.447C191.665 126.551 191.509 126.668 191.379 126.824C191.236 126.993 191.132 127.188 191.067 127.396C190.989 127.617 190.963 127.851 190.963 128.098ZM202.696 134.26C202.696 133.766 202.93 133.389 203.411 133.103C203.879 132.843 204.594 132.7 205.543 132.7C206.479 132.7 207.194 132.843 207.675 133.103C208.143 133.389 208.39 133.766 208.39 134.26C208.39 134.754 208.143 135.131 207.675 135.417C207.194 135.677 206.479 135.82 205.543 135.82C204.594 135.82 203.879 135.677 203.411 135.417C202.93 135.131 202.696 134.754 202.696 134.26ZM205.322 127.188H207.675V124.783H206.739V124.133H208.455V130.295H207.675V127.838H205.322V127.188ZM203.476 134.26C203.476 134.598 203.658 134.832 204.022 134.975C204.373 135.105 204.88 135.17 205.543 135.17C206.193 135.17 206.713 135.105 207.077 134.975C207.428 134.832 207.61 134.598 207.61 134.26C207.61 133.922 207.428 133.688 207.077 133.545C206.713 133.415 206.193 133.35 205.543 133.35C204.88 133.35 204.373 133.415 204.022 133.545C203.658 133.688 203.476 133.922 203.476 134.26ZM200.98 129.775C200.59 129.775 200.343 129.723 200.213 129.593C200.083 129.476 200.018 129.255 200.018 128.943V125.511H202.501V126.161H200.798V128.852C200.798 129.034 200.889 129.125 201.071 129.125H202.501V129.775H200.98ZM203.905 129.775C203.515 129.775 203.268 129.723 203.138 129.593C203.008 129.476 202.943 129.255 202.943 128.943V125.511H205.426V126.161H203.723V128.852C203.723 129.034 203.814 129.125 203.996 129.125H205.426V129.775H203.905ZM208.91 132.076H202.176V131.426H205.153V130.49H205.933V131.426H208.91V132.076ZM210.113 130.269H218.693V130.919H210.113V130.269ZM212.388 135.82C211.998 135.82 211.751 135.755 211.621 135.638C211.491 135.508 211.426 135.3 211.426 134.988V132.388H212.206V134.897C212.206 135.079 212.297 135.17 212.479 135.17H217.38V135.82H212.388ZM212.973 128.787C212.583 128.787 212.336 128.735 212.206 128.605C212.076 128.488 212.011 128.267 212.011 127.955V124.783H216.795V125.433H212.791V127.864C212.791 128.046 212.882 128.137 213.064 128.137H216.795V128.787H212.973Z" fill="white"/>
<path d="M137.566 78.87H142.021V71.715H143.641V78.87H146.206V71.715H147.826V78.87H155.386V80.22H137.566V78.87ZM141.508 66.369H151.444V74.955H149.824V67.719H141.508V66.369ZM161.083 68.961C161.083 68.313 161.191 67.746 161.407 67.206C161.623 66.72 161.92 66.288 162.325 65.91C161.569 65.856 161.083 65.64 160.84 65.289C160.57 64.965 160.462 64.371 160.462 63.507H162.082C162.082 63.966 162.163 64.263 162.325 64.371C162.487 64.533 162.811 64.587 163.297 64.587H165.943H166.186C166.942 64.587 167.617 64.695 168.265 64.884C168.886 65.1 169.426 65.37 169.885 65.721C170.317 66.099 170.641 66.558 170.911 67.098C171.154 67.638 171.289 68.259 171.289 68.961C171.289 69.663 171.154 70.284 170.911 70.824C170.641 71.364 170.317 71.823 169.885 72.174C169.426 72.552 168.886 72.849 168.265 73.038C167.617 73.254 166.942 73.335 166.186 73.335C165.43 73.335 164.728 73.254 164.107 73.038C163.459 72.849 162.946 72.552 162.514 72.174C162.055 71.823 161.704 71.364 161.461 70.824C161.191 70.284 161.083 69.663 161.083 68.961ZM157.276 75.495H175.096V76.845H169.966V79.842H172.369V87.78H170.749V81.192H160.003V79.842H162.406V76.845H157.276V75.495ZM162.703 68.961C162.703 69.933 163 70.662 163.648 71.175C164.242 71.715 165.106 71.985 166.186 71.985C167.266 71.985 168.103 71.715 168.751 71.175C169.345 70.662 169.669 69.933 169.669 68.961C169.669 68.016 169.345 67.26 168.751 66.72C168.103 66.207 167.266 65.937 166.186 65.937H166.024C164.998 65.991 164.188 66.261 163.594 66.774C163 67.314 162.703 68.043 162.703 68.961ZM164.026 79.842H168.346V76.845H164.026V79.842ZM188.488 69.609C188.488 70.338 188.353 70.959 188.11 71.499C187.84 72.066 187.489 72.552 187.084 72.957C186.652 73.389 186.166 73.767 185.626 74.091C185.059 74.442 184.492 74.766 183.925 75.036C184.519 75.765 185.221 76.575 186.031 77.466L188.812 80.706C189.46 79.518 189.919 77.979 190.189 76.143H191.755C191.566 77.304 191.323 78.357 191.026 79.329C190.702 80.301 190.324 81.192 189.865 81.948L191.161 83.46L192.538 85.107H190.567L189.757 84.135C189.487 83.811 189.217 83.514 188.974 83.19C188.299 83.946 187.516 84.513 186.625 84.945C185.707 85.323 184.681 85.539 183.52 85.539C181.495 85.539 179.929 85.053 178.822 84.135C177.688 83.217 177.121 81.867 177.121 80.085C177.121 79.329 177.229 78.654 177.499 78.06C177.742 77.493 178.066 76.98 178.498 76.548C178.903 76.116 179.389 75.738 179.929 75.414C180.442 75.09 180.982 74.793 181.576 74.523C181.171 74.037 180.847 73.605 180.577 73.2C180.307 72.822 180.091 72.444 179.929 72.066C179.767 71.742 179.659 71.391 179.605 71.04C179.524 70.716 179.497 70.338 179.497 69.906C179.497 69.15 179.632 68.502 179.902 67.935C180.172 67.395 180.523 66.936 180.955 66.558C181.387 66.207 181.873 65.937 182.44 65.748C182.98 65.586 183.547 65.478 184.141 65.478C184.735 65.478 185.329 65.586 185.869 65.775C186.382 65.991 186.841 66.261 187.246 66.612C187.624 66.99 187.948 67.422 188.164 67.908C188.38 68.421 188.488 68.988 188.488 69.609ZM178.714 79.923C178.714 81.354 179.146 82.434 180.037 83.136C180.901 83.865 182.062 84.216 183.466 84.216C185.302 84.216 186.787 83.487 187.975 82.002L184.843 78.357C183.925 77.358 183.169 76.467 182.548 75.711C182.008 75.981 181.522 76.224 181.09 76.494C180.604 76.791 180.199 77.088 179.875 77.412C179.497 77.763 179.227 78.141 179.038 78.519C178.822 78.951 178.714 79.41 178.714 79.923ZM181.09 69.771C181.09 70.419 181.225 71.04 181.522 71.634C181.792 72.282 182.278 73.011 182.98 73.875C183.466 73.659 183.952 73.389 184.438 73.119C184.897 72.849 185.302 72.552 185.68 72.201C186.031 71.877 186.328 71.526 186.544 71.094C186.76 70.689 186.868 70.203 186.895 69.636C186.895 68.745 186.652 68.043 186.139 67.53C185.599 67.044 184.924 66.801 184.114 66.801C183.304 66.801 182.602 67.044 182.008 67.53C181.387 68.016 181.09 68.772 181.09 69.771ZM203.254 71.472H206.359V65.937H204.82V64.587H207.979V86.025C207.979 86.187 208.006 86.295 208.06 86.349C208.114 86.403 208.195 86.43 208.357 86.43H209.329V87.78H207.871C207.331 87.78 206.926 87.645 206.71 87.375C206.467 87.105 206.359 86.7 206.359 86.16V72.822H203.254V71.472ZM209.545 63.507H212.704V86.025C212.704 86.187 212.731 86.295 212.785 86.349C212.839 86.403 212.92 86.43 213.082 86.43H214.054V87.78H212.596C212.056 87.78 211.651 87.645 211.435 87.375C211.192 87.105 211.084 86.7 211.084 86.16V64.857H209.545V63.507ZM199.798 68.259H203.308V69.609H199.825C200.041 72.309 201.391 74.523 203.875 76.224L202.984 77.25C202.066 76.629 201.256 75.873 200.554 74.982C199.798 74.118 199.285 73.092 198.988 71.85C198.664 73.092 198.151 74.118 197.449 74.982C196.693 75.873 195.883 76.629 194.992 77.25L194.101 76.224C196.558 74.523 197.908 72.309 198.124 69.609H194.668V68.259H198.178V65.019H199.798V68.259ZM221.783 87.78C220.973 87.78 220.46 87.645 220.19 87.402C219.92 87.132 219.785 86.7 219.785 86.052V80.382C219.299 80.274 218.975 80.031 218.84 79.707C218.678 79.383 218.624 78.897 218.624 78.195H220.244C220.244 78.573 220.325 78.816 220.487 78.924C220.649 79.086 220.973 79.14 221.459 79.14H231.881V87.78H221.783ZM215.573 72.714C215.573 72.066 215.681 71.472 215.924 70.932C216.14 70.419 216.464 69.96 216.896 69.582C217.274 69.204 217.76 68.907 218.354 68.691C218.894 68.502 219.515 68.394 220.217 68.394C220.892 68.394 221.513 68.502 222.107 68.691C222.647 68.907 223.133 69.204 223.565 69.582C223.97 69.96 224.294 70.419 224.537 70.932C224.753 71.472 224.861 72.066 224.861 72.714C224.861 73.362 224.753 73.956 224.537 74.469C224.294 75.009 223.97 75.468 223.565 75.846C223.133 76.224 222.647 76.521 222.107 76.71C221.513 76.926 220.892 77.034 220.217 77.034C219.515 77.034 218.894 76.926 218.354 76.71C217.76 76.521 217.274 76.224 216.869 75.846C216.437 75.468 216.14 75.009 215.924 74.469C215.681 73.956 215.573 73.362 215.573 72.714ZM221.405 80.49V85.863C221.405 86.241 221.594 86.43 221.972 86.43H230.261V80.49H221.405ZM226.454 70.392H230.261V64.857H228.317V63.507H231.881V76.845H230.261V71.742H226.454V70.392ZM217.193 72.714C217.193 73.578 217.436 74.307 217.976 74.847C218.489 75.414 219.245 75.684 220.217 75.684C221.189 75.684 221.918 75.414 222.458 74.847C222.971 74.307 223.241 73.578 223.241 72.714C223.241 71.85 222.971 71.148 222.458 70.581C221.918 70.041 221.189 69.744 220.217 69.744C219.245 69.744 218.489 70.041 217.976 70.581C217.436 71.148 217.193 71.85 217.193 72.714ZM225.995 67.233H214.439V65.883H219.407V63.507H221.027V65.883H225.995V67.233Z" fill="white"/>
<line x1="126" y1="42.8219" x2="246" y2="42.8219" stroke="white" stroke-width="0.7"/>
<line x1="126" y1="116.8" x2="246" y2="116.8" stroke="white" stroke-width="0.7"/>
<line x1="133.662" y1="35" x2="133.662" y2="124.032" stroke="white" stroke-width="0.7"/>
<line x1="237.748" y1="35" x2="237.748" y2="124.032" stroke="white" stroke-width="0.7"/>
</svg>
