<svg width="50" height="50" viewBox="0 0 50 50" fill="none" xmlns="http://www.w3.org/2000/svg">
<g clip-path="url(#clip0_344_3005)">
<g filter="url(#filter0_f_344_3005)">
<rect x="11" y="4" width="37" height="35" rx="17.5" fill="#FFEF9A"/>
</g>
<g filter="url(#filter1_i_344_3005)">
<path d="M45 24.5C45 33.6127 37.8366 41 29 41C20.1634 41 13 33.6127 13 24.5C13 15.3873 20.1634 8 29 8C37.8366 8 45 15.3873 45 24.5Z" fill="url(#paint0_linear_344_3005)"/>
</g>
<g filter="url(#filter2_b_344_3005)">
<g filter="url(#filter3_i_344_3005)">
<path d="M38.0354 32.7424C38.1452 32.1316 38.2025 31.5033 38.2025 30.8621C38.2025 24.8631 33.1907 20 27.0083 20C22.4122 20 18.463 22.6877 16.739 26.5317C15.3424 25.3616 13.5301 24.6552 11.5496 24.6552C7.13359 24.6552 3.55372 28.1674 3.55372 32.5C3.55372 32.7413 3.56482 32.98 3.58655 33.2157C1.46253 34.2252 7.89762e-07 36.3434 7.89762e-07 38.7931C7.89762e-07 42.2211 2.8639 45 6.3967 45H36.6033C40.1361 45 43 42.2211 43 38.7931C43 35.8428 40.8787 33.3733 38.0354 32.7424Z" fill="url(#paint1_linear_344_3005)"/>
</g>
</g>
</g>
<defs>
<filter id="filter0_f_344_3005" x="-43.3404" y="-50.3404" width="145.681" height="143.681" filterUnits="userSpaceOnUse" color-interpolation-filters="sRGB">
<feFlood flood-opacity="0" result="BackgroundImageFix"/>
<feBlend mode="normal" in="SourceGraphic" in2="BackgroundImageFix" result="shape"/>
<feGaussianBlur stdDeviation="27.1702" result="effect1_foregroundBlur_344_3005"/>
</filter>
<filter id="filter1_i_344_3005" x="13" y="8" width="32" height="36.5286" filterUnits="userSpaceOnUse" color-interpolation-filters="sRGB">
<feFlood flood-opacity="0" result="BackgroundImageFix"/>
<feBlend mode="normal" in="SourceGraphic" in2="BackgroundImageFix" result="shape"/>
<feColorMatrix in="SourceAlpha" type="matrix" values="0 0 0 0 0 0 0 0 0 0 0 0 0 0 0 0 0 0 127 0" result="hardAlpha"/>
<feOffset dy="3.5286"/>
<feGaussianBlur stdDeviation="6.35148"/>
<feComposite in2="hardAlpha" operator="arithmetic" k2="-1" k3="1"/>
<feColorMatrix type="matrix" values="0 0 0 0 1 0 0 0 0 1 0 0 0 0 1 0 0 0 0.81 0"/>
<feBlend mode="normal" in2="shape" result="effect1_innerShadow_344_3005"/>
</filter>
<filter id="filter2_b_344_3005" x="-19.0544" y="0.945572" width="81.1089" height="63.1089" filterUnits="userSpaceOnUse" color-interpolation-filters="sRGB">
<feFlood flood-opacity="0" result="BackgroundImageFix"/>
<feGaussianBlur in="BackgroundImageFix" stdDeviation="9.52721"/>
<feComposite in2="SourceAlpha" operator="in" result="effect1_backgroundBlur_344_3005"/>
<feBlend mode="normal" in="SourceGraphic" in2="effect1_backgroundBlur_344_3005" result="shape"/>
</filter>
<filter id="filter3_i_344_3005" x="0" y="20" width="43" height="32.0572" filterUnits="userSpaceOnUse" color-interpolation-filters="sRGB">
<feFlood flood-opacity="0" result="BackgroundImageFix"/>
<feBlend mode="normal" in="SourceGraphic" in2="BackgroundImageFix" result="shape"/>
<feColorMatrix in="SourceAlpha" type="matrix" values="0 0 0 0 0 0 0 0 0 0 0 0 0 0 0 0 0 0 127 0" result="hardAlpha"/>
<feOffset dy="7.76291"/>
<feGaussianBlur stdDeviation="3.5286"/>
<feComposite in2="hardAlpha" operator="arithmetic" k2="-1" k3="1"/>
<feColorMatrix type="matrix" values="0 0 0 0 1 0 0 0 0 1 0 0 0 0 1 0 0 0 1 0"/>
<feBlend mode="normal" in2="shape" result="effect1_innerShadow_344_3005"/>
</filter>
<linearGradient id="paint0_linear_344_3005" x1="26.5696" y1="33.481" x2="40.3551" y2="10.036" gradientUnits="userSpaceOnUse">
<stop stop-color="#FF9900"/>
<stop offset="1" stop-color="#FFEE94"/>
</linearGradient>
<linearGradient id="paint1_linear_344_3005" x1="2.73498" y1="42.7679" x2="45.4626" y2="10.1428" gradientUnits="userSpaceOnUse">
<stop stop-color="white"/>
<stop offset="1" stop-color="white" stop-opacity="0.58"/>
</linearGradient>
<clipPath id="clip0_344_3005">
<rect width="50" height="50" fill="white"/>
</clipPath>
</defs>
</svg>
