<svg width="369" height="160" viewBox="0 0 369 160" fill="none" xmlns="http://www.w3.org/2000/svg">
<rect width="369" height="160" fill="#433751"/>
<path d="M161.003 134.585V134.988C161.003 135.3 160.938 135.508 160.808 135.638C160.678 135.755 160.418 135.82 160.041 135.82H156.271C155.881 135.82 155.634 135.755 155.504 135.638C155.374 135.508 155.309 135.3 155.309 134.988V133.025H160.093V131.79H155.309V131.14H160.873V133.675H156.089V134.897C156.089 135.079 156.18 135.17 156.362 135.17H159.95C160.132 135.17 160.223 135.079 160.223 134.897V134.585H161.003ZM159.157 124.133H160.873V126.564H162.693V127.214H160.873V130.165H160.093V124.783H159.157V124.133ZM154.477 129.775C154.087 129.775 153.84 129.723 153.71 129.593C153.58 129.476 153.515 129.255 153.515 128.943V125.381H154.295V128.852C154.295 129.034 154.386 129.125 154.568 129.125H158.169V129.775H154.477ZM166.323 130.295C166.011 130.048 165.751 129.762 165.53 129.45C165.296 129.138 165.088 128.8 164.919 128.423C164.737 128.839 164.516 129.203 164.256 129.528C163.983 129.866 163.684 130.152 163.359 130.412L162.904 129.905C163.398 129.515 163.788 129.073 164.087 128.553C164.373 128.059 164.529 127.435 164.529 126.707V125.511H165.309V126.707C165.309 127.318 165.4 127.825 165.595 128.241C165.777 128.67 166.011 129.06 166.323 129.411C166.622 129.06 166.869 128.67 167.064 128.241C167.246 127.825 167.337 127.318 167.337 126.707V125.511H168.117V126.707C168.117 127.435 168.26 128.059 168.559 128.553C168.845 129.073 169.248 129.515 169.742 129.905L169.287 130.412C168.949 130.152 168.663 129.866 168.403 129.528C168.13 129.203 167.909 128.839 167.727 128.423C167.389 129.177 166.921 129.801 166.323 130.295ZM170.08 124.133H171.796V134.975C171.796 135.053 171.809 135.105 171.835 135.131C171.861 135.157 171.9 135.17 171.978 135.17H172.446V135.82H171.744C171.484 135.82 171.289 135.755 171.185 135.625C171.068 135.495 171.016 135.3 171.016 135.04V124.783H170.08V124.133ZM179.304 124.133H181.02V127.513H182.84V128.163H181.02V134.975C181.02 135.053 181.033 135.105 181.059 135.131C181.085 135.157 181.124 135.17 181.202 135.17H181.67V135.82H180.968C180.708 135.82 180.513 135.755 180.409 135.625C180.292 135.495 180.24 135.3 180.24 135.04V124.783H179.304V124.133ZM173.662 125.771H178.186V130.555H177.406V126.421H173.662V125.771ZM190.183 128.098C190.183 127.734 190.235 127.383 190.365 127.071C190.482 126.772 190.651 126.512 190.885 126.291C190.677 126.291 190.521 126.265 190.391 126.213C190.261 126.174 190.157 126.109 190.092 126.005C190.014 125.927 189.962 125.81 189.936 125.654C189.897 125.524 189.884 125.342 189.884 125.121H190.664C190.664 125.342 190.703 125.485 190.781 125.537C190.859 125.615 191.015 125.641 191.249 125.641H192.575C192.926 125.641 193.251 125.706 193.55 125.823C193.836 125.953 194.096 126.109 194.304 126.317C194.512 126.538 194.668 126.798 194.798 127.097C194.902 127.409 194.967 127.734 194.967 128.098C194.967 128.462 194.902 128.8 194.798 129.099C194.668 129.411 194.512 129.658 194.304 129.866C194.096 130.087 193.836 130.256 193.55 130.373C193.251 130.503 192.926 130.555 192.575 130.555C192.211 130.555 191.886 130.503 191.6 130.373C191.301 130.256 191.054 130.087 190.846 129.866C190.638 129.658 190.469 129.411 190.365 129.099C190.235 128.8 190.183 128.462 190.183 128.098ZM195.578 127.708H197.411V124.783H196.475V124.133H198.191V134.975C198.191 135.053 198.204 135.105 198.23 135.131C198.256 135.157 198.295 135.17 198.373 135.17H198.841V135.82H198.139C197.879 135.82 197.684 135.755 197.58 135.625C197.463 135.495 197.411 135.3 197.411 135.04V128.358H195.578V127.708ZM190.963 128.098C190.963 128.358 191.002 128.605 191.08 128.813C191.145 129.034 191.249 129.229 191.392 129.385C191.522 129.554 191.691 129.684 191.899 129.762C192.094 129.866 192.315 129.905 192.575 129.905C192.822 129.905 193.043 129.866 193.251 129.762C193.446 129.684 193.615 129.554 193.758 129.385C193.888 129.229 194.005 129.034 194.083 128.813C194.148 128.605 194.187 128.358 194.187 128.098C194.187 127.838 194.148 127.604 194.083 127.383C194.005 127.175 193.888 126.98 193.758 126.811C193.615 126.655 193.446 126.525 193.251 126.421C193.043 126.343 192.822 126.291 192.575 126.291H192.497C192.263 126.304 192.042 126.356 191.86 126.447C191.665 126.551 191.509 126.668 191.379 126.824C191.236 126.993 191.132 127.188 191.067 127.396C190.989 127.617 190.963 127.851 190.963 128.098ZM202.696 134.26C202.696 133.766 202.93 133.389 203.411 133.103C203.879 132.843 204.594 132.7 205.543 132.7C206.479 132.7 207.194 132.843 207.675 133.103C208.143 133.389 208.39 133.766 208.39 134.26C208.39 134.754 208.143 135.131 207.675 135.417C207.194 135.677 206.479 135.82 205.543 135.82C204.594 135.82 203.879 135.677 203.411 135.417C202.93 135.131 202.696 134.754 202.696 134.26ZM205.322 127.188H207.675V124.783H206.739V124.133H208.455V130.295H207.675V127.838H205.322V127.188ZM203.476 134.26C203.476 134.598 203.658 134.832 204.022 134.975C204.373 135.105 204.88 135.17 205.543 135.17C206.193 135.17 206.713 135.105 207.077 134.975C207.428 134.832 207.61 134.598 207.61 134.26C207.61 133.922 207.428 133.688 207.077 133.545C206.713 133.415 206.193 133.35 205.543 133.35C204.88 133.35 204.373 133.415 204.022 133.545C203.658 133.688 203.476 133.922 203.476 134.26ZM200.98 129.775C200.59 129.775 200.343 129.723 200.213 129.593C200.083 129.476 200.018 129.255 200.018 128.943V125.511H202.501V126.161H200.798V128.852C200.798 129.034 200.889 129.125 201.071 129.125H202.501V129.775H200.98ZM203.905 129.775C203.515 129.775 203.268 129.723 203.138 129.593C203.008 129.476 202.943 129.255 202.943 128.943V125.511H205.426V126.161H203.723V128.852C203.723 129.034 203.814 129.125 203.996 129.125H205.426V129.775H203.905ZM208.91 132.076H202.176V131.426H205.153V130.49H205.933V131.426H208.91V132.076ZM210.113 130.269H218.693V130.919H210.113V130.269ZM212.388 135.82C211.998 135.82 211.751 135.755 211.621 135.638C211.491 135.508 211.426 135.3 211.426 134.988V132.388H212.206V134.897C212.206 135.079 212.297 135.17 212.479 135.17H217.38V135.82H212.388ZM212.973 128.787C212.583 128.787 212.336 128.735 212.206 128.605C212.076 128.488 212.011 128.267 212.011 127.955V124.783H216.795V125.433H212.791V127.864C212.791 128.046 212.882 128.137 213.064 128.137H216.795V128.787H212.973Z" fill="white"/>
<path d="M137.582 66.369H147.572V67.719H143.387C143.387 68.745 143.495 69.636 143.765 70.419C144.008 71.229 144.332 71.958 144.764 72.552C145.169 73.2 145.655 73.74 146.222 74.199C146.762 74.685 147.356 75.063 147.977 75.387L147.113 76.44C146.627 76.224 146.141 75.9 145.655 75.495C145.142 75.117 144.683 74.685 144.278 74.199C143.846 73.74 143.495 73.227 143.198 72.687C142.874 72.147 142.685 71.607 142.577 71.04C142.469 71.607 142.253 72.147 141.956 72.687C141.632 73.227 141.281 73.74 140.876 74.199C140.444 74.685 140.012 75.117 139.526 75.495C139.013 75.9 138.527 76.224 138.041 76.44L137.177 75.387C137.771 75.063 138.365 74.685 138.932 74.199C139.472 73.74 139.985 73.2 140.417 72.552C140.822 71.958 141.146 71.229 141.416 70.419C141.632 69.636 141.767 68.745 141.767 67.719H137.582V66.369ZM147.545 70.392H152.621V64.857H150.677V63.507H154.241V81.165H152.621V71.742H147.545V70.392ZM144.143 87.78C143.333 87.78 142.82 87.645 142.55 87.402C142.28 87.132 142.145 86.7 142.145 86.052V79.14H143.765V85.863C143.765 86.241 143.954 86.43 144.332 86.43H154.511V87.78H144.143ZM162.814 71.58C162.706 72.147 162.49 72.687 162.193 73.227C161.869 73.767 161.518 74.28 161.113 74.739C160.681 75.225 160.249 75.657 159.763 76.035C159.25 76.44 158.764 76.764 158.278 76.98L157.414 75.927C158.008 75.603 158.602 75.225 159.169 74.739C159.709 74.28 160.222 73.74 160.654 73.092C161.059 72.498 161.383 71.769 161.653 70.959C161.869 70.176 162.004 69.285 162.004 68.259V66.369H163.624V68.259C163.624 69.285 163.732 70.176 164.002 70.959C164.245 71.769 164.569 72.498 165.001 73.092C165.406 73.74 165.892 74.28 166.459 74.739C166.999 75.225 167.593 75.603 168.214 75.927L167.35 76.98C166.864 76.764 166.378 76.44 165.892 76.035C165.379 75.657 164.92 75.225 164.515 74.739C164.083 74.28 163.732 73.767 163.435 73.227C163.111 72.687 162.922 72.147 162.814 71.58ZM170.914 63.507H174.478V86.025C174.478 86.187 174.505 86.295 174.559 86.349C174.613 86.403 174.694 86.43 174.856 86.43H175.828V87.78H174.37C173.83 87.78 173.425 87.645 173.209 87.375C172.966 87.105 172.858 86.7 172.858 86.16V64.857H170.914V63.507ZM189.424 69.609C189.424 70.338 189.289 70.959 189.046 71.499C188.776 72.066 188.425 72.552 188.02 72.957C187.588 73.389 187.102 73.767 186.562 74.091C185.995 74.442 185.428 74.766 184.861 75.036C185.455 75.765 186.157 76.575 186.967 77.466L189.748 80.706C190.396 79.518 190.855 77.979 191.125 76.143H192.691C192.502 77.304 192.259 78.357 191.962 79.329C191.638 80.301 191.26 81.192 190.801 81.948L192.097 83.46L193.474 85.107H191.503L190.693 84.135C190.423 83.811 190.153 83.514 189.91 83.19C189.235 83.946 188.452 84.513 187.561 84.945C186.643 85.323 185.617 85.539 184.456 85.539C182.431 85.539 180.865 85.053 179.758 84.135C178.624 83.217 178.057 81.867 178.057 80.085C178.057 79.329 178.165 78.654 178.435 78.06C178.678 77.493 179.002 76.98 179.434 76.548C179.839 76.116 180.325 75.738 180.865 75.414C181.378 75.09 181.918 74.793 182.512 74.523C182.107 74.037 181.783 73.605 181.513 73.2C181.243 72.822 181.027 72.444 180.865 72.066C180.703 71.742 180.595 71.391 180.541 71.04C180.46 70.716 180.433 70.338 180.433 69.906C180.433 69.15 180.568 68.502 180.838 67.935C181.108 67.395 181.459 66.936 181.891 66.558C182.323 66.207 182.809 65.937 183.376 65.748C183.916 65.586 184.483 65.478 185.077 65.478C185.671 65.478 186.265 65.586 186.805 65.775C187.318 65.991 187.777 66.261 188.182 66.612C188.56 66.99 188.884 67.422 189.1 67.908C189.316 68.421 189.424 68.988 189.424 69.609ZM179.65 79.923C179.65 81.354 180.082 82.434 180.973 83.136C181.837 83.865 182.998 84.216 184.402 84.216C186.238 84.216 187.723 83.487 188.911 82.002L185.779 78.357C184.861 77.358 184.105 76.467 183.484 75.711C182.944 75.981 182.458 76.224 182.026 76.494C181.54 76.791 181.135 77.088 180.811 77.412C180.433 77.763 180.163 78.141 179.974 78.519C179.758 78.951 179.65 79.41 179.65 79.923ZM182.026 69.771C182.026 70.419 182.161 71.04 182.458 71.634C182.728 72.282 183.214 73.011 183.916 73.875C184.402 73.659 184.888 73.389 185.374 73.119C185.833 72.849 186.238 72.552 186.616 72.201C186.967 71.877 187.264 71.526 187.48 71.094C187.696 70.689 187.804 70.203 187.831 69.636C187.831 68.745 187.588 68.043 187.075 67.53C186.535 67.044 185.86 66.801 185.05 66.801C184.24 66.801 183.538 67.044 182.944 67.53C182.323 68.016 182.026 68.772 182.026 69.771ZM196.657 65.559C196.657 66.099 196.738 66.477 196.927 66.639C197.089 66.828 197.386 66.909 197.872 66.909H205.324V76.575H197.926C197.116 76.575 196.603 76.467 196.333 76.197C196.063 75.954 195.928 75.495 195.928 74.847V67.989C195.55 67.827 195.334 67.53 195.226 67.152C195.091 66.774 195.037 66.261 195.037 65.559H196.657ZM208.726 63.507H212.29V86.025C212.29 86.187 212.317 86.295 212.371 86.349C212.425 86.403 212.506 86.43 212.668 86.43H213.64V87.78H212.182C211.642 87.78 211.237 87.645 211.021 87.375C210.778 87.105 210.67 86.7 210.67 86.16V64.857H208.726V63.507ZM197.548 68.259V74.658C197.548 75.036 197.737 75.225 198.115 75.225H203.704V68.259H197.737H197.548ZM215.733 74.469H233.553V75.819H225.453V78.33H230.826V83.46H220.08V85.863C220.08 86.241 220.269 86.43 220.647 86.43H228.909C229.287 86.43 229.476 86.241 229.476 85.863V85.215H231.096V86.052C231.096 86.7 230.961 87.132 230.691 87.402C230.421 87.645 229.881 87.78 229.098 87.78H220.458C219.648 87.78 219.135 87.645 218.865 87.402C218.595 87.132 218.46 86.7 218.46 86.052V82.11H229.206V79.68H218.46V78.33H223.833V75.819H215.733V74.469ZM223.833 64.317H225.453V65.046C225.453 66.666 225.912 68.016 226.857 69.069C227.775 70.149 228.963 70.959 230.448 71.472L229.908 72.66C229.476 72.552 228.99 72.336 228.45 72.066C227.91 71.823 227.37 71.499 226.884 71.067C226.371 70.689 225.912 70.203 225.534 69.663C225.102 69.15 224.805 68.556 224.643 67.881C224.454 68.556 224.157 69.15 223.779 69.663C223.347 70.203 222.888 70.689 222.402 71.067C221.889 71.499 221.376 71.823 220.836 72.066C220.296 72.336 219.81 72.552 219.378 72.66L218.838 71.472C220.296 70.959 221.511 70.149 222.456 69.069C223.374 68.016 223.833 66.666 223.833 65.046V64.317Z" fill="white"/>
<line x1="126" y1="42.8219" x2="246" y2="42.8219" stroke="white" stroke-width="0.7"/>
<line x1="126" y1="116.8" x2="246" y2="116.8" stroke="white" stroke-width="0.7"/>
<line x1="133.662" y1="35" x2="133.662" y2="124.032" stroke="white" stroke-width="0.7"/>
<line x1="237.748" y1="35" x2="237.748" y2="124.032" stroke="white" stroke-width="0.7"/>
</svg>
