<svg width="369" height="160" viewBox="0 0 369 160" fill="none" xmlns="http://www.w3.org/2000/svg">
<rect width="369" height="160" fill="#FD9191"/>
<path d="M161.003 134.585V134.988C161.003 135.3 160.938 135.508 160.808 135.638C160.678 135.755 160.418 135.82 160.041 135.82H156.271C155.881 135.82 155.634 135.755 155.504 135.638C155.374 135.508 155.309 135.3 155.309 134.988V133.025H160.093V131.79H155.309V131.14H160.873V133.675H156.089V134.897C156.089 135.079 156.18 135.17 156.362 135.17H159.95C160.132 135.17 160.223 135.079 160.223 134.897V134.585H161.003ZM159.157 124.133H160.873V126.564H162.693V127.214H160.873V130.165H160.093V124.783H159.157V124.133ZM154.477 129.775C154.087 129.775 153.84 129.723 153.71 129.593C153.58 129.476 153.515 129.255 153.515 128.943V125.381H154.295V128.852C154.295 129.034 154.386 129.125 154.568 129.125H158.169V129.775H154.477ZM166.323 130.295C166.011 130.048 165.751 129.762 165.53 129.45C165.296 129.138 165.088 128.8 164.919 128.423C164.737 128.839 164.516 129.203 164.256 129.528C163.983 129.866 163.684 130.152 163.359 130.412L162.904 129.905C163.398 129.515 163.788 129.073 164.087 128.553C164.373 128.059 164.529 127.435 164.529 126.707V125.511H165.309V126.707C165.309 127.318 165.4 127.825 165.595 128.241C165.777 128.67 166.011 129.06 166.323 129.411C166.622 129.06 166.869 128.67 167.064 128.241C167.246 127.825 167.337 127.318 167.337 126.707V125.511H168.117V126.707C168.117 127.435 168.26 128.059 168.559 128.553C168.845 129.073 169.248 129.515 169.742 129.905L169.287 130.412C168.949 130.152 168.663 129.866 168.403 129.528C168.13 129.203 167.909 128.839 167.727 128.423C167.389 129.177 166.921 129.801 166.323 130.295ZM170.08 124.133H171.796V134.975C171.796 135.053 171.809 135.105 171.835 135.131C171.861 135.157 171.9 135.17 171.978 135.17H172.446V135.82H171.744C171.484 135.82 171.289 135.755 171.185 135.625C171.068 135.495 171.016 135.3 171.016 135.04V124.783H170.08V124.133ZM179.304 124.133H181.02V127.513H182.84V128.163H181.02V134.975C181.02 135.053 181.033 135.105 181.059 135.131C181.085 135.157 181.124 135.17 181.202 135.17H181.67V135.82H180.968C180.708 135.82 180.513 135.755 180.409 135.625C180.292 135.495 180.24 135.3 180.24 135.04V124.783H179.304V124.133ZM173.662 125.771H178.186V130.555H177.406V126.421H173.662V125.771ZM190.183 128.098C190.183 127.734 190.235 127.383 190.365 127.071C190.482 126.772 190.651 126.512 190.885 126.291C190.677 126.291 190.521 126.265 190.391 126.213C190.261 126.174 190.157 126.109 190.092 126.005C190.014 125.927 189.962 125.81 189.936 125.654C189.897 125.524 189.884 125.342 189.884 125.121H190.664C190.664 125.342 190.703 125.485 190.781 125.537C190.859 125.615 191.015 125.641 191.249 125.641H192.575C192.926 125.641 193.251 125.706 193.55 125.823C193.836 125.953 194.096 126.109 194.304 126.317C194.512 126.538 194.668 126.798 194.798 127.097C194.902 127.409 194.967 127.734 194.967 128.098C194.967 128.462 194.902 128.8 194.798 129.099C194.668 129.411 194.512 129.658 194.304 129.866C194.096 130.087 193.836 130.256 193.55 130.373C193.251 130.503 192.926 130.555 192.575 130.555C192.211 130.555 191.886 130.503 191.6 130.373C191.301 130.256 191.054 130.087 190.846 129.866C190.638 129.658 190.469 129.411 190.365 129.099C190.235 128.8 190.183 128.462 190.183 128.098ZM195.578 127.708H197.411V124.783H196.475V124.133H198.191V134.975C198.191 135.053 198.204 135.105 198.23 135.131C198.256 135.157 198.295 135.17 198.373 135.17H198.841V135.82H198.139C197.879 135.82 197.684 135.755 197.58 135.625C197.463 135.495 197.411 135.3 197.411 135.04V128.358H195.578V127.708ZM190.963 128.098C190.963 128.358 191.002 128.605 191.08 128.813C191.145 129.034 191.249 129.229 191.392 129.385C191.522 129.554 191.691 129.684 191.899 129.762C192.094 129.866 192.315 129.905 192.575 129.905C192.822 129.905 193.043 129.866 193.251 129.762C193.446 129.684 193.615 129.554 193.758 129.385C193.888 129.229 194.005 129.034 194.083 128.813C194.148 128.605 194.187 128.358 194.187 128.098C194.187 127.838 194.148 127.604 194.083 127.383C194.005 127.175 193.888 126.98 193.758 126.811C193.615 126.655 193.446 126.525 193.251 126.421C193.043 126.343 192.822 126.291 192.575 126.291H192.497C192.263 126.304 192.042 126.356 191.86 126.447C191.665 126.551 191.509 126.668 191.379 126.824C191.236 126.993 191.132 127.188 191.067 127.396C190.989 127.617 190.963 127.851 190.963 128.098ZM202.696 134.26C202.696 133.766 202.93 133.389 203.411 133.103C203.879 132.843 204.594 132.7 205.543 132.7C206.479 132.7 207.194 132.843 207.675 133.103C208.143 133.389 208.39 133.766 208.39 134.26C208.39 134.754 208.143 135.131 207.675 135.417C207.194 135.677 206.479 135.82 205.543 135.82C204.594 135.82 203.879 135.677 203.411 135.417C202.93 135.131 202.696 134.754 202.696 134.26ZM205.322 127.188H207.675V124.783H206.739V124.133H208.455V130.295H207.675V127.838H205.322V127.188ZM203.476 134.26C203.476 134.598 203.658 134.832 204.022 134.975C204.373 135.105 204.88 135.17 205.543 135.17C206.193 135.17 206.713 135.105 207.077 134.975C207.428 134.832 207.61 134.598 207.61 134.26C207.61 133.922 207.428 133.688 207.077 133.545C206.713 133.415 206.193 133.35 205.543 133.35C204.88 133.35 204.373 133.415 204.022 133.545C203.658 133.688 203.476 133.922 203.476 134.26ZM200.98 129.775C200.59 129.775 200.343 129.723 200.213 129.593C200.083 129.476 200.018 129.255 200.018 128.943V125.511H202.501V126.161H200.798V128.852C200.798 129.034 200.889 129.125 201.071 129.125H202.501V129.775H200.98ZM203.905 129.775C203.515 129.775 203.268 129.723 203.138 129.593C203.008 129.476 202.943 129.255 202.943 128.943V125.511H205.426V126.161H203.723V128.852C203.723 129.034 203.814 129.125 203.996 129.125H205.426V129.775H203.905ZM208.91 132.076H202.176V131.426H205.153V130.49H205.933V131.426H208.91V132.076ZM210.113 130.269H218.693V130.919H210.113V130.269ZM212.388 135.82C211.998 135.82 211.751 135.755 211.621 135.638C211.491 135.508 211.426 135.3 211.426 134.988V132.388H212.206V134.897C212.206 135.079 212.297 135.17 212.479 135.17H217.38V135.82H212.388ZM212.973 128.787C212.583 128.787 212.336 128.735 212.206 128.605C212.076 128.488 212.011 128.267 212.011 127.955V124.783H216.795V125.433H212.791V127.864C212.791 128.046 212.882 128.137 213.064 128.137H216.795V128.787H212.973Z" fill="white"/>
<path d="M164.928 83.918H171.495V80.255H161.595V78.605H183.375V80.255H173.475V83.918H180.042V93.62H178.062V85.568H164.928V83.918ZM171.495 63.953H173.475V66.494V66.89C173.475 67.022 173.475 67.154 173.508 67.253H178.92V68.903H173.805C174.201 70.223 174.927 71.345 175.95 72.236C176.94 73.16 178.161 73.853 179.58 74.348L178.92 75.8C178.392 75.668 177.798 75.404 177.138 75.074C176.478 74.777 175.818 74.381 175.224 73.853C174.597 73.391 174.036 72.797 173.574 72.137C173.046 71.51 172.683 70.784 172.485 69.959C172.254 70.784 171.891 71.51 171.429 72.137C170.901 72.797 170.34 73.391 169.746 73.853C169.119 74.381 168.492 74.777 167.832 75.074C167.172 75.404 166.578 75.668 166.05 75.8L165.39 74.348C166.776 73.853 167.997 73.16 169.02 72.236C170.01 71.345 170.736 70.223 171.132 68.903H166.05V67.253H171.462C171.462 67.154 171.462 67.022 171.495 66.89V66.494V63.953ZM195.651 73.028H200.106V66.923H198.225V65.273H202.086V91.475C202.086 91.673 202.119 91.805 202.185 91.871C202.251 91.937 202.35 91.97 202.548 91.97H203.736V93.62H201.954C201.294 93.62 200.799 93.455 200.535 93.125C200.238 92.795 200.106 92.3 200.106 91.64V74.678H195.651V73.028ZM204 63.953H207.861V91.475C207.861 91.673 207.894 91.805 207.96 91.871C208.026 91.937 208.125 91.97 208.323 91.97H209.511V93.62H207.729C207.069 93.62 206.574 93.455 206.31 93.125C206.013 92.795 205.881 92.3 205.881 91.64V65.603H204V63.953ZM185.817 68.111H196.377V69.761H192.087V70.091C192.087 73.853 193.737 76.889 197.07 79.166L195.981 80.42C194.859 79.661 193.869 78.737 193.011 77.648C192.087 76.592 191.46 75.338 191.097 73.82C190.701 75.338 190.074 76.592 189.216 77.648C188.292 78.737 187.302 79.661 186.213 80.42L185.124 79.166C188.424 76.889 190.107 73.853 190.107 70.091V69.761H185.817V68.111Z" fill="white"/>
<line x1="126" y1="42.8219" x2="246" y2="42.8219" stroke="white" stroke-width="0.7"/>
<line x1="126" y1="116.8" x2="246" y2="116.8" stroke="white" stroke-width="0.7"/>
<line x1="133.662" y1="35" x2="133.662" y2="124.032" stroke="white" stroke-width="0.7"/>
<line x1="237.748" y1="35" x2="237.748" y2="124.032" stroke="white" stroke-width="0.7"/>
</svg>
