<svg width="50" height="50" viewBox="0 0 50 50" fill="none" xmlns="http://www.w3.org/2000/svg">
<g filter="url(#filter0_b_342_4167)">
<g filter="url(#filter1_i_342_4167)">
<path d="M41.7411 25.252C41.853 24.6169 41.9113 23.9635 41.9113 23.2966C41.9113 17.0576 36.8066 12 30.5095 12C25.8281 12 21.8057 14.7952 20.0498 18.7929C18.6272 17.5761 16.7813 16.8414 14.7641 16.8414C10.2661 16.8414 6.61987 20.4941 6.61987 25C6.61987 25.2509 6.63118 25.4992 6.65331 25.7443C4.48989 26.7942 3.00023 28.9972 3.00023 31.5448C3.00023 35.1099 5.91725 38 9.51558 38H40.2825C43.8808 38 46.7979 35.1099 46.7979 31.5448C46.7979 28.4766 44.6372 25.9083 41.7411 25.252Z" fill="url(#paint0_linear_342_4167)"/>
</g>
</g>
<defs>
<filter id="filter0_b_342_4167" x="-1.17857" y="7.82143" width="52.155" height="34.3571" filterUnits="userSpaceOnUse" color-interpolation-filters="sRGB">
<feFlood flood-opacity="0" result="BackgroundImageFix"/>
<feGaussianBlur in="BackgroundImageFix" stdDeviation="2.08929"/>
<feComposite in2="SourceAlpha" operator="in" result="effect1_backgroundBlur_342_4167"/>
<feBlend mode="normal" in="SourceGraphic" in2="effect1_backgroundBlur_342_4167" result="shape"/>
</filter>
<filter id="filter1_i_342_4167" x="3.00024" y="12" width="43.7976" height="27.5476" filterUnits="userSpaceOnUse" color-interpolation-filters="sRGB">
<feFlood flood-opacity="0" result="BackgroundImageFix"/>
<feBlend mode="normal" in="SourceGraphic" in2="BackgroundImageFix" result="shape"/>
<feColorMatrix in="SourceAlpha" type="matrix" values="0 0 0 0 0 0 0 0 0 0 0 0 0 0 0 0 0 0 127 0" result="hardAlpha"/>
<feOffset dy="1.70238"/>
<feGaussianBlur stdDeviation="0.77381"/>
<feComposite in2="hardAlpha" operator="arithmetic" k2="-1" k3="1"/>
<feColorMatrix type="matrix" values="0 0 0 0 1 0 0 0 0 1 0 0 0 0 1 0 0 0 1 0"/>
<feBlend mode="normal" in2="shape" result="effect1_innerShadow_342_4167"/>
</filter>
<linearGradient id="paint0_linear_342_4167" x1="5.78595" y1="35.6786" x2="49.9705" y2="2.6369" gradientUnits="userSpaceOnUse">
<stop stop-color="white"/>
<stop offset="1" stop-color="white" stop-opacity="0.58"/>
</linearGradient>
</defs>
</svg>
